<svg xmlns="http://www.w3.org/2000/svg" viewBox="0 0 512 488.09"><defs><style>.cls-1{fill:#d1d1d1;}.cls-2{fill:#d2d2d2;}</style></defs><g id="Layer_2" data-name="Layer 2"><g id="Layer_1-2" data-name="Layer 1"><path class="cls-1" d="M0,456.07c.67-.73,1.77-1.38,1.93-2.21,3.76-19.7,12.85-36.66,25.59-52A146.57,146.57,0,0,1,56.8,375a187.1,187.1,0,0,1,41.79-21.9c8.35-3.09,17-5.45,25.44-8.17a16,16,0,0,0,2.38-1.18c-5.27-6.21-10.68-12.06-15.49-18.37-8.85-11.6-14.68-24.78-18.81-38.71a122.87,122.87,0,0,1-5-41.64,132.7,132.7,0,0,1,6.4-34.39,122.93,122.93,0,0,1,17.14-34c14.1-19.51,32.48-33,55.83-39.21,3.46-.93,7.17-1,10.77-1.39,2.94-.35,5.93-1.14,8.83-.9a182.37,182.37,0,0,1,20.06,2.55c20.54,4.05,36.91,15.41,50.5,30.74a108.39,108.39,0,0,1,20.85,34.82c4,10.86,7,22,7.53,33.63.27,6.12,1.07,12.24.87,18.34-.26,7.57-.55,15.28-2.17,22.64a131.44,131.44,0,0,1-20.39,47.09c-3.68,5.27-8.29,9.91-12.59,14.73a24.52,24.52,0,0,1-4,3l.57,1.28c4,1.35,7.84,3.19,11.91,3.95,9.41,1.76,18,5.67,26.48,9.73,10.88,5.25,21.26,11.57,31.66,17.76a60,60,0,0,1,10.53,8.29c6.71,6.41,13.44,12.83,19.6,19.76a98.1,98.1,0,0,1,16,25.66c6.66,15,10.77,30.54,9.48,47.15-.29,3.82-4.74,9.53-8.78,10.59a35.34,35.34,0,0,1-8.8,1.19q-169.24.09-338.48.08c-6.49,0-11.58-2.13-15-7.85-.34-.58-1.29-.79-2-1.17v-23Zm87,1.72V452.5c0-7.16-.12-14.33,0-21.49.14-6.49,5.67-13.07,11.57-13.89,9.38-1.31,15.59,3.18,17.42,9.72a25.1,25.1,0,0,1,.93,6.33c.1,8.12,0,16.24,0,24.54H256c0-8.15.08-16,0-23.76a17.94,17.94,0,0,1,3.56-11.13,14.92,14.92,0,0,1,16.8-5.43A13.78,13.78,0,0,1,286,431c0,7.66,0,15.33,0,23a36.24,36.24,0,0,0,.38,3.83h56.19c-2.7-7-4.62-13.71-7.77-19.79-7.14-13.77-17.62-24.9-29.78-34.38C287.57,390,267.89,380.77,246.54,375c-10.83-2.93-21.71-5.52-33-6.07-6.4-.31-12.77-1.71-19.17-1.78-9.44-.1-18.91.27-28.33,1a228.13,228.13,0,0,0-23,3,172.14,172.14,0,0,0-43.34,13.67C80.46,393.83,63,405.32,49.39,422.09a96,96,0,0,0-16.92,31.12,24.73,24.73,0,0,0-.52,4.58ZM256.35,251.23c-.47-5.93-.51-11.93-1.49-17.77a93.66,93.66,0,0,0-15.74-39.19c-9.19-13-21-22.32-36.38-26.92-14.52-4.34-28.53-2.81-41.91,3.82-11.53,5.71-20.53,14.45-27.68,25.13a93.86,93.86,0,0,0-16,46.28,102.92,102.92,0,0,0,3.66,35.82c5.44,19,14.84,35.23,31,46.68,13,9.22,27.47,14.12,44,11.07,19.88-3.67,34.36-14.94,45.2-31.27C251.7,288.71,256.3,270.62,256.35,251.23Z"/><path class="cls-2" d="M512,22a13.76,13.76,0,0,0-3,2.11A14.78,14.78,0,0,1,497,30q-81.93,0-163.84,0c-7.56,0-14.09-4.94-16-13-1.28-5.38,4.17-14.25,9.76-15.79a31.48,31.48,0,0,1,8.3-1.15Q414.1,0,493,0c4.62,0,9.31.27,13.11,3.48,1.22,1,2.22,2.34,3.39,3.46.76.73,1.64,1.35,2.47,2Z"/><path class="cls-1" d="M512,204c-.67.37-1.61.57-2,1.13-3.94,6.15-9.88,7.87-16.7,7.84-7.66,0-15.32,0-23,0q-66.71,0-133.41,0a37.12,37.12,0,0,1-8.33-1c-6.77-1.58-12.21-8.74-11.6-14.94.73-7.41,7.69-14,15.07-14q82.44,0,164.88,0a15.12,15.12,0,0,1,11.85,5.33A27.58,27.58,0,0,0,512,191Z"/><path class="cls-1" d="M512,111c-.65.93-1.33,1.84-1.94,2.79-3,4.63-7,7.27-12.75,7.27q-82.47-.07-164.95,0c-9.33,0-13.47-6.26-15.2-12.49-1.68-6,3.27-13.83,9.9-16a33.76,33.76,0,0,1,10.24-1.49q77.22-.14,154.45,0c7.36,0,14.69,1,18.86,8.55.16.28.91.23,1.39.34Z"/></g></g></svg>