<svg xmlns="http://www.w3.org/2000/svg" xmlns:xlink="http://www.w3.org/1999/xlink" viewBox="0 0 119.25 199.25"><defs><style>.cls-1{isolation:isolate;}.cls-2,.cls-3,.cls-35,.cls-36,.cls-37,.cls-4,.cls-5,.cls-6{stroke:#000;}.cls-15,.cls-2,.cls-3,.cls-35,.cls-36,.cls-37,.cls-4,.cls-5,.cls-6{stroke-miterlimit:10;}.cls-2{fill:url(#linear-gradient);}.cls-3{fill:url(#radial-gradient);}.cls-4{fill:url(#radial-gradient-2);}.cls-5{fill:url(#radial-gradient-3);}.cls-6{fill:url(#radial-gradient-4);}.cls-22,.cls-7{opacity:0.25;}.cls-10,.cls-12,.cls-13,.cls-14,.cls-15,.cls-16,.cls-17,.cls-18,.cls-19,.cls-20,.cls-21,.cls-22,.cls-23,.cls-24,.cls-25,.cls-26,.cls-27,.cls-28,.cls-29,.cls-30,.cls-31,.cls-32,.cls-33,.cls-34,.cls-7,.cls-8,.cls-9{mix-blend-mode:screen;}.cls-7{fill:url(#radial-gradient-5);}.cls-8{fill:url(#radial-gradient-6);}.cls-9{fill:url(#radial-gradient-7);}.cls-10,.cls-25{opacity:0.2;}.cls-10{fill:url(#radial-gradient-8);}.cls-11,.cls-15{fill:none;}.cls-12,.cls-26{opacity:0.15;}.cls-12{fill:url(#radial-gradient-9);}.cls-13,.cls-16,.cls-27,.cls-29{opacity:0.5;}.cls-13{fill:url(#radial-gradient-10);}.cls-14{fill:url(#radial-gradient-11);}.cls-15{stroke:#fff;stroke-width:2px;opacity:0.03;}.cls-16{fill:url(#radial-gradient-12);}.cls-17{fill:url(#radial-gradient-13);}.cls-18{fill:url(#radial-gradient-14);}.cls-19{fill:url(#radial-gradient-15);}.cls-20{fill:url(#radial-gradient-16);}.cls-21{fill:url(#radial-gradient-17);}.cls-22{fill:url(#radial-gradient-18);}.cls-23{fill:url(#radial-gradient-19);}.cls-24{fill:url(#radial-gradient-20);}.cls-25{fill:url(#radial-gradient-21);}.cls-26{fill:url(#radial-gradient-22);}.cls-27{fill:url(#radial-gradient-23);}.cls-28{fill:url(#radial-gradient-24);}.cls-29{fill:url(#radial-gradient-25);}.cls-30{fill:url(#radial-gradient-26);}.cls-31{fill:url(#radial-gradient-27);}.cls-32{fill:url(#radial-gradient-28);}.cls-33{fill:url(#radial-gradient-29);}.cls-34{fill:url(#radial-gradient-30);}.cls-35{fill:url(#linear-gradient-2);}.cls-36{fill:url(#linear-gradient-3);}.cls-37{fill:url(#linear-gradient-4);}</style><linearGradient id="linear-gradient" x1="-9.14" y1="168.39" x2="128.39" y2="30.86" gradientUnits="userSpaceOnUse"><stop offset="0"/><stop offset="0.2" stop-color="#1a1a1a"/><stop offset="0.35" stop-color="#666"/><stop offset="0.44" stop-color="gray"/><stop offset="0.51" stop-color="gray"/><stop offset="0.62" stop-color="#ccc"/><stop offset="0.75" stop-color="gray"/><stop offset="0.82"/><stop offset="1"/></linearGradient><radialGradient id="radial-gradient" cx="476.66" cy="298.46" r="50.86" gradientTransform="matrix(-0.5, -0.87, 0.78, -0.45, 68.62, 608.57)" gradientUnits="userSpaceOnUse"><stop offset="0" stop-color="#333"/><stop offset="0.1" stop-color="#4d4d4d"/><stop offset="0.25" stop-color="#666"/><stop offset="0.37" stop-color="gray"/><stop offset="0.44" stop-color="gray"/><stop offset="0.57" stop-color="#ccc"/><stop offset="0.65" stop-color="gray"/><stop offset="0.69" stop-color="#555" stop-opacity="0.4"/><stop offset="0.8" stop-color="#4f4f4f" stop-opacity="0.7"/><stop offset="0.89" stop-color="#4d4d4d"/><stop offset="1"/></radialGradient><radialGradient id="radial-gradient-2" cx="64.75" cy="47.47" r="37.35" gradientUnits="userSpaceOnUse"><stop offset="0" stop-color="#333"/><stop offset="0.17" stop-color="#4d4d4d"/><stop offset="0.26" stop-color="#666"/><stop offset="0.35" stop-color="gray"/><stop offset="0.45" stop-color="gray"/><stop offset="0.62" stop-color="#ccc"/><stop offset="0.79" stop-color="gray"/><stop offset="0.9" stop-color="#4d4d4d"/><stop offset="1" stop-color="#333"/></radialGradient><radialGradient id="radial-gradient-3" cx="478.17" cy="280.24" r="31.56" gradientTransform="translate(-413.75 -208.98) scale(1 0.9)" gradientUnits="userSpaceOnUse"><stop offset="0" stop-color="#333"/><stop offset="0.17" stop-color="#4d4d4d"/><stop offset="0.26" stop-color="#666"/><stop offset="0.35" stop-color="gray"/><stop offset="0.45" stop-color="gray"/><stop offset="0.58" stop-color="#ccc"/><stop offset="0.75" stop-color="gray"/><stop offset="0.88" stop-color="#4d4d4d"/><stop offset="1"/><stop offset="1" stop-color="#333"/></radialGradient><radialGradient id="radial-gradient-4" cx="64.42" cy="52.29" r="23.23" xlink:href="#radial-gradient-2"/><radialGradient id="radial-gradient-5" cx="47.29" cy="89.66" r="6.1" gradientUnits="userSpaceOnUse"><stop offset="0.1"/><stop offset="0.11" stop-color="#080602"/><stop offset="0.16" stop-color="#231b08"/><stop offset="0.22" stop-color="#392c0d"/><stop offset="0.28" stop-color="#4a3910"/><stop offset="0.37" stop-color="#554213"/><stop offset="0.48" stop-color="#5c4815"/><stop offset="0.8" stop-color="#5e4915"/><stop offset="1"/></radialGradient><radialGradient id="radial-gradient-6" cx="115.84" cy="101.97" r="0.2" gradientUnits="userSpaceOnUse"><stop offset="0" stop-color="#d4e194"/><stop offset="0.06" stop-color="#afba7a"/><stop offset="0.14" stop-color="#868f5e"/><stop offset="0.22" stop-color="#626845"/><stop offset="0.31" stop-color="#44482f"/><stop offset="0.4" stop-color="#2b2e1e"/><stop offset="0.51" stop-color="#181911"/><stop offset="0.62" stop-color="#0a0b07"/><stop offset="0.76" stop-color="#020302"/><stop offset="1"/></radialGradient><radialGradient id="radial-gradient-7" cx="114.59" cy="101.74" r="0.2" xlink:href="#radial-gradient-6"/><radialGradient id="radial-gradient-8" cx="111.89" cy="101.26" r="1.53" gradientUnits="userSpaceOnUse"><stop offset="0.05"/><stop offset="0.09" stop-color="#040a03"/><stop offset="0.3" stop-color="#183411"/><stop offset="0.48" stop-color="#25531c"/><stop offset="0.64" stop-color="#2e6622"/><stop offset="0.75" stop-color="#316d24"/><stop offset="0.79" stop-color="#4f6e16"/><stop offset="0.83" stop-color="#716f06"/><stop offset="0.86" stop-color="#7e6f00"/><stop offset="0.89" stop-color="#7a6c00"/><stop offset="0.91" stop-color="#706200"/><stop offset="0.94" stop-color="#5d5200"/><stop offset="0.96" stop-color="#443c00"/><stop offset="0.98" stop-color="#231f00"/><stop offset="1"/></radialGradient><radialGradient id="radial-gradient-9" cx="60.75" cy="92.07" r="4.07" gradientUnits="userSpaceOnUse"><stop offset="0" stop-color="#200"/><stop offset="0.73" stop-color="#984023"/><stop offset="1" stop-color="#200"/></radialGradient><radialGradient id="radial-gradient-10" cx="60.75" cy="92.07" r="2.03" gradientUnits="userSpaceOnUse"><stop offset="0.15" stop-color="#fff"/><stop offset="0.21" stop-color="#e5d3d3"/><stop offset="0.29" stop-color="#c49c9e"/><stop offset="0.36" stop-color="#ad7477"/><stop offset="0.42" stop-color="#9e5c5f"/><stop offset="0.45" stop-color="#995356"/><stop offset="0.57" stop-color="#6b3335"/><stop offset="0.69" stop-color="#431718"/><stop offset="0.79" stop-color="#2b0606"/><stop offset="0.85" stop-color="#200"/><stop offset="0.86" stop-color="#260201"/><stop offset="0.86" stop-color="#330704"/><stop offset="0.87" stop-color="#471009"/><stop offset="0.88" stop-color="#641d0f"/><stop offset="0.89" stop-color="#8a2e18"/><stop offset="0.9" stop-color="#b74223"/><stop offset="0.9" stop-color="#d34e29"/><stop offset="0.9" stop-color="#c84927"/><stop offset="0.91" stop-color="#9c361c"/><stop offset="0.93" stop-color="#772514"/><stop offset="0.94" stop-color="#58180c"/><stop offset="0.95" stop-color="#400d07"/><stop offset="0.97" stop-color="#2f0603"/><stop offset="0.98" stop-color="#250101"/><stop offset="1" stop-color="#200"/></radialGradient><radialGradient id="radial-gradient-11" cx="60.75" cy="92.07" r="1.7" gradientUnits="userSpaceOnUse"><stop offset="0.15" stop-color="#fff"/><stop offset="0.28" stop-color="#c2c2c2"/><stop offset="0.43" stop-color="#888"/><stop offset="0.56" stop-color="#575757"/><stop offset="0.69" stop-color="#313131"/><stop offset="0.81" stop-color="#161616"/><stop offset="0.92" stop-color="#060606"/><stop offset="1"/></radialGradient><radialGradient id="radial-gradient-12" cx="114.59" cy="101.74" r="3.05" gradientUnits="userSpaceOnUse"><stop offset="0.64"/><stop offset="0.72" stop-color="#000200"/><stop offset="0.75" stop-color="#020902"/><stop offset="0.77" stop-color="#051405"/><stop offset="0.78" stop-color="#082509"/><stop offset="0.8" stop-color="#0d3b0e"/><stop offset="0.8" stop-color="#0f4310"/><stop offset="0.81" stop-color="#1e2c0a"/><stop offset="0.83" stop-color="#2d1605"/><stop offset="0.85" stop-color="#360901"/><stop offset="0.86" stop-color="#390400"/><stop offset="0.87" stop-color="#250300"/><stop offset="0.89" stop-color="#140100"/><stop offset="0.9" stop-color="#090100"/><stop offset="0.93" stop-color="#020000"/><stop offset="1"/></radialGradient><radialGradient id="radial-gradient-13" cx="65.92" cy="93" r="0.81" gradientUnits="userSpaceOnUse"><stop offset="0.1"/><stop offset="0.17" stop-color="#071210"/><stop offset="0.33" stop-color="#14342f"/><stop offset="0.49" stop-color="#1f4f47"/><stop offset="0.65" stop-color="#266258"/><stop offset="0.82" stop-color="#2b6d62"/><stop offset="1" stop-color="#2c7165"/></radialGradient><radialGradient id="radial-gradient-14" cx="69.46" cy="93.64" r="0.21" gradientUnits="userSpaceOnUse"><stop offset="0.1" stop-color="#a3474d"/><stop offset="0.17" stop-color="#893c41"/><stop offset="0.3" stop-color="#5f292d"/><stop offset="0.44" stop-color="#3d1a1d"/><stop offset="0.57" stop-color="#220f10"/><stop offset="0.71" stop-color="#0f0707"/><stop offset="0.85" stop-color="#040202"/><stop offset="1"/></radialGradient><radialGradient id="radial-gradient-15" cx="85.13" cy="96.45" r="0.06" gradientUnits="userSpaceOnUse"><stop offset="0.1" stop-color="#1a2211"/><stop offset="0.1" stop-color="#1a2211"/><stop offset="0.39" stop-color="#0b0f08"/><stop offset="0.68" stop-color="#030402"/><stop offset="1"/></radialGradient><radialGradient id="radial-gradient-16" cx="110.5" cy="101.01" r="0.48" gradientUnits="userSpaceOnUse"><stop offset="0.1"/><stop offset="0.16" stop-color="#160f06"/><stop offset="0.29" stop-color="#402b11"/><stop offset="0.43" stop-color="#62411a"/><stop offset="0.57" stop-color="#7d5321"/><stop offset="0.71" stop-color="#906026"/><stop offset="0.85" stop-color="#9b6829"/><stop offset="1" stop-color="#9f6a2a"/></radialGradient><radialGradient id="radial-gradient-17" cx="55.68" cy="91.16" r="0.14" gradientUnits="userSpaceOnUse"><stop offset="0.1" stop-color="#686444"/><stop offset="0.14" stop-color="#5f5b3e"/><stop offset="0.3" stop-color="#3d3a28"/><stop offset="0.47" stop-color="#222116"/><stop offset="0.64" stop-color="#0f0e0a"/><stop offset="0.81" stop-color="#040402"/><stop offset="1"/></radialGradient><radialGradient id="radial-gradient-18" cx="62.43" cy="57.29" r="15.57" xlink:href="#radial-gradient-5"/><radialGradient id="radial-gradient-19" cx="32.01" cy="76.59" r="0.52" xlink:href="#radial-gradient-6"/><radialGradient id="radial-gradient-20" cx="23.68" cy="81.87" r="0.52" xlink:href="#radial-gradient-6"/><radialGradient id="radial-gradient-21" cx="25.23" cy="80.89" r="3.89" xlink:href="#radial-gradient-8"/><radialGradient id="radial-gradient-22" cx="54.68" cy="62.2" r="10.38" xlink:href="#radial-gradient-9"/><radialGradient id="radial-gradient-23" cx="54.68" cy="62.2" r="5.19" xlink:href="#radial-gradient-10"/><radialGradient id="radial-gradient-24" cx="54.68" cy="62.2" r="4.33" xlink:href="#radial-gradient-11"/><radialGradient id="radial-gradient-25" cx="23.68" cy="81.87" r="7.79" xlink:href="#radial-gradient-12"/><radialGradient id="radial-gradient-26" cx="62.21" cy="57.43" r="0.53" gradientUnits="userSpaceOnUse"><stop offset="0.1" stop-color="#003246"/><stop offset="0.16" stop-color="#002b3d"/><stop offset="0.36" stop-color="#001822"/><stop offset="0.57" stop-color="#000b0f"/><stop offset="0.78" stop-color="#000304"/><stop offset="1"/></radialGradient><radialGradient id="radial-gradient-27" cx="56.32" cy="61.17" r="1.98" gradientUnits="userSpaceOnUse"><stop offset="0.1"/><stop offset="0.16" stop-color="#000709"/><stop offset="0.36" stop-color="#001a24"/><stop offset="0.57" stop-color="#002737"/><stop offset="0.78" stop-color="#002f42"/><stop offset="1" stop-color="#003246"/></radialGradient><radialGradient id="radial-gradient-28" cx="59.16" cy="59.36" r="0.99" gradientUnits="userSpaceOnUse"><stop offset="0.1"/><stop offset="0.13" stop-color="#040403"/><stop offset="0.34" stop-color="#1f1c17"/><stop offset="0.55" stop-color="#322d26"/><stop offset="0.77" stop-color="#3d382e"/><stop offset="1" stop-color="#413b31"/></radialGradient><radialGradient id="radial-gradient-29" cx="62.4" cy="57.3" r="1.4" gradientUnits="userSpaceOnUse"><stop offset="0.1"/><stop offset="0.22" stop-color="#2e1a1c"/><stop offset="0.34" stop-color="#583135"/><stop offset="0.47" stop-color="#7a4549"/><stop offset="0.59" stop-color="#95545a"/><stop offset="0.72" stop-color="#a85f65"/><stop offset="0.86" stop-color="#b3656c"/><stop offset="1" stop-color="#b7676e"/></radialGradient><radialGradient id="radial-gradient-30" cx="38.88" cy="72.23" r="1.44" gradientUnits="userSpaceOnUse"><stop offset="0.1"/><stop offset="0.25" stop-color="#161b04"/><stop offset="0.43" stop-color="#2a3608"/><stop offset="0.61" stop-color="#39490b"/><stop offset="0.8" stop-color="#42540c"/><stop offset="1" stop-color="#45580d"/></radialGradient><linearGradient id="linear-gradient-2" x1="60.81" y1="151.94" x2="68.02" y2="151.94" gradientUnits="userSpaceOnUse"><stop offset="0"/><stop offset="0.2" stop-color="#1a1a1a"/><stop offset="0.35" stop-color="#666"/><stop offset="0.44" stop-color="gray"/><stop offset="0.51" stop-color="#4d4d4d"/><stop offset="0.62" stop-color="#b3b3b3"/><stop offset="0.75" stop-color="gray"/><stop offset="0.82"/><stop offset="1"/></linearGradient><linearGradient id="linear-gradient-3" x1="428.62" y1="371.57" x2="458.54" y2="395.53" xlink:href="#linear-gradient"/><linearGradient id="linear-gradient-4" x1="445.39" y1="379.41" x2="479.69" y2="398.59" gradientUnits="userSpaceOnUse"><stop offset="0"/><stop offset="0.2" stop-color="#1a1a1a"/><stop offset="0.35" stop-color="#666"/><stop offset="0.44" stop-color="gray"/><stop offset="0.51" stop-color="gray"/><stop offset="0.62" stop-color="#ccc"/><stop offset="0.75" stop-color="gray"/><stop offset="0.82"/><stop offset="0.96"/></linearGradient></defs><title>logo</title><g class="cls-1"><g id="Layer_1" data-name="Layer 1"><rect class="cls-2" x="0.5" y="0.5" width="118.25" height="198.25" rx="35.37" ry="35.37"/><circle class="cls-3" cx="62.91" cy="61.46" r="50.86"/><ellipse class="cls-4" cx="64.75" cy="47.47" rx="37.83" ry="36.87"/><ellipse class="cls-5" cx="64.42" cy="43.24" rx="30.5" ry="32.59"/><circle class="cls-6" cx="64.42" cy="52.29" r="23.23"/><circle class="cls-7" cx="47.29" cy="89.66" r="6.1"/><circle class="cls-8" cx="115.84" cy="101.97" r="0.2"/><circle class="cls-9" cx="114.59" cy="101.74" r="0.2"/><circle class="cls-10" cx="111.89" cy="101.26" r="1.53"/><line class="cls-11" x1="60.75" y1="92.07" x2="114.59" y2="101.74"/><circle class="cls-12" cx="60.75" cy="92.07" r="4.07"/><circle class="cls-13" cx="60.75" cy="92.07" r="2.03"/><circle class="cls-14" cx="60.75" cy="92.07" r="1.7"/><polyline class="cls-15" points="60.75 92.07 66.16 92.45 60.75 92.07 55.34 91.69 60.75 92.07 60.37 97.48 60.75 92.07 61.13 86.66 60.75 92.07 65.75 88.82 60.75 92.07 55.76 95.33 60.75 92.07 64.01 97.07 60.75 92.07 57.5 87.08 60.75 92.07 62.89 93.22 60.75 92.07 58.62 90.93 60.75 92.07 59.61 94.21 60.75 92.07 61.9 89.94 60.75 92.07 65.49 90.14 60.75 92.07 56.01 94 60.75 92.07 62.68 96.81 60.75 92.07 58.82 87.33 60.75 92.07 66.69 92.32 60.75 92.07 54.82 91.83 60.75 92.07 60.51 98.01 60.75 92.07 60.99 86.14 60.75 92.07 67.42 90.82 60.75 92.07 54.08 93.33 60.75 92.07 62.01 98.74 60.75 92.07 59.5 85.4 60.75 92.07 69.08 96.29 60.75 92.07 52.43 87.86 60.75 92.07 56.54 100.4 60.75 92.07 64.97 83.75 60.75 92.07 68.4 94.52 60.75 92.07 53.1 89.62 60.75 92.07 58.3 99.72 60.75 92.07 63.2 84.42 60.75 92.07 69.59 96.53 60.75 92.07 51.92 87.61 60.75 92.07 56.29 100.91 60.75 92.07 65.21 83.24 60.75 92.07 61.55 92.89 60.75 92.07 59.95 91.26 60.75 92.07 59.94 92.87 60.75 92.07 61.57 91.27 60.75 92.07 70.65 93.02 60.75 92.07 50.86 91.13 60.75 92.07 59.81 101.97 60.75 92.07 61.7 82.18 60.75 92.07 69.21 88.76 60.75 92.07 52.3 95.39 60.75 92.07 64.07 100.53 60.75 92.07 57.44 83.62 60.75 92.07 62.5 92.15 60.75 92.07 59 92 60.75 92.07 60.68 93.82 60.75 92.07 60.83 90.32 60.75 92.07 67.06 92.16 60.75 92.07 54.45 91.99 60.75 92.07 60.67 98.38 60.75 92.07 60.84 85.77 60.75 92.07 61.34 91.66 60.75 92.07 60.17 92.49 60.75 92.07 61.17 92.66 60.75 92.07 60.34 91.49"/><circle class="cls-16" cx="114.59" cy="101.74" r="3.05"/><circle class="cls-17" cx="65.92" cy="93" r="0.81"/><circle class="cls-18" cx="69.46" cy="93.64" r="0.21"/><circle class="cls-19" cx="85.13" cy="96.45" r="0.06"/><circle class="cls-20" cx="110.5" cy="101.01" r="0.48"/><circle class="cls-21" cx="55.68" cy="91.16" r="0.14"/><circle class="cls-22" cx="62.43" cy="57.29" r="15.57"/><circle class="cls-23" cx="32.01" cy="76.59" r="0.52"/><circle class="cls-24" cx="23.68" cy="81.87" r="0.52"/><circle class="cls-25" cx="25.23" cy="80.89" r="3.89"/><line class="cls-11" x1="54.68" y1="62.2" x2="23.68" y2="81.87"/><circle class="cls-26" cx="54.68" cy="62.2" r="10.38"/><circle class="cls-27" cx="54.68" cy="62.2" r="5.19"/><circle class="cls-28" cx="54.68" cy="62.2" r="4.33"/><polyline class="cls-15" points="54.68 62.2 45.84 56 54.68 62.2 63.52 68.41 54.68 62.2 60.89 53.37 54.68 62.2 48.48 71.04 54.68 62.2 50.2 56.36 54.68 62.2 59.16 68.05 54.68 62.2 60.53 57.73 54.68 62.2 48.84 66.68 54.68 62.2 53.28 46.98 54.68 62.2 56.08 77.42 54.68 62.2 69.9 60.8 54.68 62.2 39.46 63.61 54.68 62.2 44.21 57.04 54.68 62.2 65.15 67.37 54.68 62.2 59.85 51.74 54.68 62.2 49.52 72.67 54.68 62.2 50.6 55.85 54.68 62.2 58.77 68.56 54.68 62.2 61.04 58.12 54.68 62.2 48.33 66.29 54.68 62.2 48.83 62.34 54.68 62.2 60.53 62.07 54.68 62.2 54.55 56.36 54.68 62.2 54.82 68.05 54.68 62.2 47.96 60.91 54.68 62.2 61.4 63.5 54.68 62.2 55.98 55.48 54.68 62.2 53.38 68.93 54.68 62.2 49.93 58.93 54.68 62.2 59.43 65.48 54.68 62.2 57.95 57.46 54.68 62.2 51.41 66.95 54.68 62.2 30.67 54.93 54.68 62.2 78.69 69.48 54.68 62.2 61.95 38.19 54.68 62.2 47.41 86.22 54.68 62.2 47.08 50.88 54.68 62.2 62.28 73.53 54.68 62.2 66 54.6 54.68 62.2 43.36 69.81 54.68 62.2 45.11 48.11 54.68 62.2 64.26 76.29 54.68 62.2 68.77 52.63 54.68 62.2 40.59 71.78 54.68 62.2 38.6 52.39 54.68 62.2 70.76 72.02 54.68 62.2 64.49 46.13 54.68 62.2 44.87 78.28 54.68 62.2 42.51 50.4 54.68 62.2 66.85 74.01 54.68 62.2 66.48 50.04 54.68 62.2 42.88 74.37 54.68 62.2 48.3 53.93 54.68 62.2 61.06 70.48 54.68 62.2 62.96 55.82 54.68 62.2 46.4 68.58 54.68 62.2 49.88 55.94 54.68 62.2 59.49 68.47 54.68 62.2 60.94 57.4 54.68 62.2 48.42 67.01"/><circle class="cls-29" cx="23.68" cy="81.87" r="7.79"/><circle class="cls-30" cx="62.21" cy="57.43" r="0.53"/><circle class="cls-31" cx="56.32" cy="61.17" r="1.98"/><circle class="cls-32" cx="59.16" cy="59.36" r="0.99"/><circle class="cls-33" cx="62.4" cy="57.3" r="1.4"/><circle class="cls-34" cx="38.88" cy="72.23" r="1.44"/><rect class="cls-35" x="60.81" y="108.69" width="7.21" height="86.5" rx="3.6" ry="3.6"/><path class="cls-36" d="M430.65,358c0,29.84,18.38,54,41.09,54Z" transform="translate(-413.75 -237)"/><path class="cls-37" d="M471.74,412c0-29.84-18.38-54-41.09-54" transform="translate(-413.75 -237)"/></g></g></svg>