<svg xmlns="http://www.w3.org/2000/svg" viewBox="0 0 724.8 430.48"><defs><style>.cls-1{fill:#f5a61d;}.cls-2{fill:#242222;}</style></defs><g id="Layer_2" data-name="Layer 2"><g id="Layer_1-2" data-name="Layer 1"><path class="cls-1" d="M584.43,145.89H558c-.61-1.14-1.35-2.62-2.18-4.06-2.1-3.62-4.43-7.12-6.34-10.84-6.89-13.43-17-24.29-27.9-34.37A123,123,0,0,0,502,82q-5.85-3.57-11.76-7a12.16,12.16,0,0,0-2.34-.79c-6.28,5.42-12.86,10-20.4,13a99.51,99.51,0,0,1-18.11,5.4c-7.6,1.39-15.14,1.41-22.74,1.21-3.34-.09-6.67-.75-10-1.12-2.2-.24-4.41-.41-6.54-.61a8.32,8.32,0,0,0-.93,1.61c-.65,2.63-.95,5.39-1.9,7.91a73.6,73.6,0,0,1-10.88,19.27,75.12,75.12,0,0,1-17.85,16.06,80.51,80.51,0,0,1-19.42,9.29,7.61,7.61,0,0,1-4.72-.06A94.38,94.38,0,0,1,330,132.93a67.23,67.23,0,0,1-14.46-14.86c-4.47-6.36-8.4-13.12-10-20.93-.38-1.81-1.07-3.55-1.71-5.63a108.18,108.18,0,0,1-30.51,2.19A81.49,81.49,0,0,1,246,87.08,75.49,75.49,0,0,1,229.27,77c-1.16.32-3,.44-4.37,1.28a157.82,157.82,0,0,0-34.12,27.14c-6.6,7.06-12.86,14.45-17.68,22.91-2.81,4.94-5.57,9.92-8.37,14.86-.54.95-1.17,1.85-1.64,2.6-8.13.93-23,.45-25.79-.93.62-1.68,1.14-3.43,1.88-5.08a168.14,168.14,0,0,1,18.07-31.92A200.72,200.72,0,0,1,174.13,87.3c6.08-6.3,13-11.84,19.79-17.38,7.48-6.08,15.76-11,24.19-15.69a10,10,0,0,1,1.6-.87c3.06-1,4.9-3.18,6.22-6A57.29,57.29,0,0,1,239,29.16c3.84-3.49,7.59-7.09,11.67-10.29a76.74,76.74,0,0,1,21.57-12c6.16-2.2,12.47-4,18.8-5.67a46.29,46.29,0,0,1,9.65-1c10-.37,19.95-.43,29.74,2.07a79,79,0,0,1,23.18,9.63,16,16,0,0,0,1.6.95,15.28,15.28,0,0,0,1.77.58c1.58-.85,3.43-1.77,5.2-2.82a82.7,82.7,0,0,1,21.73-8.45c9.46-2.42,19-2.39,28.61-2a87.56,87.56,0,0,1,27.17,5.92A96.09,96.09,0,0,1,469.5,23.8a77.75,77.75,0,0,1,18.16,23.1A174.67,174.67,0,0,1,518,62.81c6,3.88,11.25,8.86,16.95,13.2A112.43,112.43,0,0,1,552.1,92.76c5.2,6.1,9.72,12.79,14.75,19a106.44,106.44,0,0,1,8.94,13.65c1.22,2.08,1.75,4.58,3,6.47,2.1,3.23,3.07,6.87,4.79,10.21A16.71,16.71,0,0,1,584.43,145.89ZM371.22,33.49a15.24,15.24,0,0,0,1,3.9,49.54,49.54,0,0,0,4.38,6.46,65.47,65.47,0,0,0,18.5,15.7c11.22,6.52,23.29,9.54,36.12,10.23a61.68,61.68,0,0,0,16.67-1.71c6.63-1.47,13-3.72,18.57-8.18a24.09,24.09,0,0,0-4.85-9.1A62.36,62.36,0,0,0,440,33a81.83,81.83,0,0,0-18-6.69c-3.49-.81-7.12-1-10.67-1.6-7.12-1.24-14.16-.42-21.12,1A56.36,56.36,0,0,0,371.22,33.49ZM349.74,46.91a28.88,28.88,0,0,0-3,1.56,44.7,44.7,0,0,0-15.22,17.37A36,36,0,0,0,336.25,105a66,66,0,0,0,7.11,7.54,49.21,49.21,0,0,0,13.39,8.25C374,114.26,386.62,96.67,386,82.56,364.13,69.48,356.32,58.4,349.74,46.91ZM332.3,28.77C305,16.24,260.35,30,247.13,59.29c11.32,10.94,39.43,13.82,58.79,5.9C310.19,50.12,319.71,38.51,332.3,28.77Z"/><path class="cls-1" d="M574.18,335.6c-4.46,7.69-8.84,15-14.69,21.27-4.11,4.43-8.06,9.05-12.52,13.1a170.2,170.2,0,0,1-26.17,19.54A226.3,226.3,0,0,1,495,403.3c-5.64,2.49-11.37,4.78-17.13,7-5.2,2-10.44,3.88-15.74,5.57-4.25,1.35-8.59,2.44-12.93,3.45-8.7,2-17.37,4.22-26.16,5.73s-17.74,2.29-26.62,3.36c-5.43.65-10.86,1.23-16.29,1.83a21.12,21.12,0,0,1-2.24.18c-11.24,0-22.49.2-33.73-.1-6.07-.16-12.11-1.19-18.16-1.83-5.2-.54-10.41-1-15.59-1.67s-10.5-1.79-15.74-2.71c-3.19-.56-6.38-1.05-9.54-1.73-4.85-1-9.69-2.12-14.48-3.38-4.55-1.21-9-2.67-13.53-4a243.59,243.59,0,0,1-30-11.34,227.88,227.88,0,0,1-32.7-18.15,156.79,156.79,0,0,1-34-30.06,84,84,0,0,1-12.88-19.81c2.92-1.11,26.44-1.15,29.9-.05,4.82,7.31,11.37,13.19,17.88,19.07,12.14,11,26.31,18.75,41,25.62,11.66,5.45,23.89,9.37,36.21,13A208,208,0,0,0,303.43,400c4.18.55,8.3,1.53,12.48,2.07,5,.66,10.14,1.13,15.22,1.57,17.58,1.5,35.19,1.08,52.79.5,7.55-.24,15.07-1.57,22.59-2.48,4.69-.56,9.39-1.11,14-1.92,5.5-1,11-2,16.41-3.38,6.49-1.63,12.93-3.51,19.32-5.48a213.84,213.84,0,0,0,26.3-9.94,223.66,223.66,0,0,0,27.82-15.06,150.5,150.5,0,0,0,26.19-21.3,94.46,94.46,0,0,0,6.41-7.68,5,5,0,0,1,4.13-2.16c8.12,0,16.24,0,24.36.07A12.28,12.28,0,0,1,574.18,335.6Z"/><path class="cls-2" d="M537.91,245.61c-21.39.34-38.18-16-38.45-37.5a37.28,37.28,0,0,1,37.77-38.18c22.15,0,37.72,16.5,38.14,37.5S559.14,245.28,537.91,245.61ZM555.26,208c.06-9.85-4.56-16.79-13-19.13-8.19-2.28-18.52.73-21.87,11.78a24.81,24.81,0,0,0,0,14c3.29,11.73,15.51,14.7,23.54,11.44C551.24,223.19,555.22,216.87,555.26,208Z"/><path class="cls-2" d="M482.35,170c1,24.41,2,48.83,3.09,73.52H466.21c-.26-10.14-.53-20.22-.82-31.14-6.18,5.65-11.13,11.64-17.11,17-5.67-5.68-11.12-11.12-17.21-17.21-.29,10.9-.55,21-.82,31.38H412.07c.29-24.44,1.22-48.72,2.22-73.9C421,175,426.09,181,431.65,186.36s11,11.25,16.67,17.13c10.87-11.51,21.49-23.16,33-33.93Z"/><path class="cls-2" d="M358.15,203.52c10.9-11.77,21.61-23.21,33.37-33.86,2,24.65,3,49.15,3.4,73.92h-19c-.24-10.13-.47-20.26-.73-31.34l-16.92,17.18L341,212.14c-.31,10.94-.59,21-.89,31.51-3.11,0-6,.09-9,.11s-5.71,0-9.12,0c.19-24.6.95-48.95,2.49-73.49C336.23,180.86,347.08,192.09,358.15,203.52Z"/><path class="cls-2" d="M138.45,171.41h6.23q13.68,0,27.35,0a26.87,26.87,0,0,1,13,2.87c8,4.32,11.74,11.24,12.38,20a28.53,28.53,0,0,1-.27,6.72c-1,6.12-3.49,11.44-9.49,14.76,5.41,9.15,10.69,18.11,16.44,27.85-7.72.23-14.51.05-21.55.14L170,222.85h-12.5v20.63H138.45Zm19.25,36.36c4,0,7.9.29,11.69-.07,4.23-.41,6.82-3.62,7.6-8.5.75-4.66-1.17-9.13-4.7-10.94a4.53,4.53,0,0,0-1.38-.55c-4.42-.6-8.83-.32-13.21-.26Z"/><path class="cls-2" d="M591,243.53c-.65-24.65-.46-49.17,0-74.5,8.18,5.31,14.95,11.27,21.77,17.14s13.46,11.81,20.64,18.12V171.41h17.71c1.27,3.69,1.34,69.66,0,74.41-14.61-10.82-27.88-23-41.86-35.37v33.08Z"/><path class="cls-2" d="M72.67,171.51h50V187.1H91.53v11.83H122v16.15c-10,.08-20,0-30.38,0v12.11H123.5v16.29H72.67Z"/><path class="cls-2" d="M19.59,225.36v18.36c-6.41.08-12.59,0-18.75,0C0,241-.34,181.06.41,171.7a21,21,0,0,1,2.43-.28q15.18,0,30.37,0c7.64,0,14.28,2.44,19.19,8.46a27.89,27.89,0,0,1,4.06,7.1,32.42,32.42,0,0,1,1.25,20.6,21,21,0,0,1-15.71,16,58.13,58.13,0,0,1-10.68,1.71C27.6,225.58,23.84,225.36,19.59,225.36ZM19.74,210c3.93-.25,7.65-.27,11.31-.78,4-.56,6.43-3.34,7.28-7.11a18.26,18.26,0,0,0,0-7,9,9,0,0,0-8.21-7.53c-3.41-.3-6.88-.06-10.41-.06Z"/><path class="cls-2" d="M722.21,187.06l-14,5.66c-.56-.84-1.05-1.51-1.48-2.23a13.75,13.75,0,0,0-16.49-6.12c-2.68.9-4.23,2.6-4.42,5.4s.89,5.09,3.45,6.09a76.7,76.7,0,0,0,10,3c3,.72,6.2.87,9.2,1.69,12.42,3.42,17.83,14.13,16,25.27a20.87,20.87,0,0,1-12.85,16.42,43.23,43.23,0,0,1-29,1.82c-8.24-2.28-13.59-7.53-16.21-16.1,4.53-2.8,9.66-4.19,14.52-6.2a7.42,7.42,0,0,1,.86,1c3.9,7.18,11,10.05,18.65,7.53,2.72-.9,4.55-2.63,4.79-5.6a6.28,6.28,0,0,0-3.55-6.47c-3.73-2-7.84-2.43-11.93-2.9-5-.58-9.81-1.75-14-4.87a17.56,17.56,0,0,1-6.24-7.81c-4.39-11.85-.7-26.69,14.7-31a40.74,40.74,0,0,1,21.85-.38c7.42,2,13,6.2,15.69,13.67A14.87,14.87,0,0,1,722.21,187.06Z"/><path class="cls-2" d="M211,227.54l14.13-5.77c1.93,2.31,3.32,4.62,5.29,6.19,4.32,3.46,9.38,3.82,14.57,2.28,2.72-.81,4.57-2.59,4.85-5.56a6.24,6.24,0,0,0-3.55-6.46c-3.59-2-7.56-2.44-11.53-2.89-5-.56-9.8-1.67-14.05-4.64a17.65,17.65,0,0,1-6.27-7.31c-4.38-10-2.72-25.51,12.1-31a38.24,38.24,0,0,1,26.81-.28,20.16,20.16,0,0,1,12.8,12.3,18.53,18.53,0,0,1,.52,2.78l-14,5.61-1.43-2.43a13.73,13.73,0,0,0-16.23-6c-2.63.86-4.31,2.38-4.53,5.27s.74,5.2,3.6,6.3a99.28,99.28,0,0,0,10.37,3c4.21,1.11,8.65,1.59,12.62,3.24,8.44,3.53,11.95,10.61,12,19.44s-3.51,16-11.57,19.88a40.5,40.5,0,0,1-34.13,1.13C216.86,240,212.72,234.93,211,227.54Z"/><path class="cls-2" d="M284.08,171.63h19c.72,2.55.92,67.14.18,71.89H284.08Z"/><path class="cls-2" d="M272.71,269.23c6.41,0,12.54-.16,18.65,0,11.58.36,14.88,10.95,11.47,19.39-.67,1.64-2.31,2.89-3.71,4.58,2.65,4.5,5.43,9.19,8.55,14.48-4.14.34-7.8.1-11.49.13l-6.87-11.32H283v11.07H272.71Zm10.39,8.37v11.07a49.08,49.08,0,0,0,5.46,0c2.94-.33,4.78-2.69,4.74-5.75a5,5,0,0,0-5.14-5.26C286.56,277.52,285,277.6,283.1,277.6Z"/><path class="cls-2" d="M562.9,290.26v17.37h-9.67V267.89c8.12,5.56,14.81,12.19,22.56,18.65V269.33h9.88c.24,13.12.29,26.11-.09,39.1l-.8.4Z"/><path class="cls-2" d="M153.44,269.33h10c0,9.06.32,17.93-.1,26.77-.34,7.17-5,11.63-12.24,12.37a32.89,32.89,0,0,1-8.92-.29,13,13,0,0,1-10.7-11.51,43.75,43.75,0,0,1-.3-5.61c0-7.11,0-14.23,0-21.65h10.34v3.67c0,7,0,14,0,21,0,4,2.11,6.13,5.88,6.16s6-2.11,6-6.05c.07-7,0-14,0-21Z"/><path class="cls-2" d="M641.16,280.16l-8.66,3.51a14.58,14.58,0,0,1-1.19-1.44c-2.23-3.51-5.56-4.6-9.4-3.87-3.56.68-6.22,2.86-6.82,6.59a22.66,22.66,0,0,0,0,7.35c.64,3.69,3.25,5.83,6.89,6.48s6.72,0,8.94-3.23c.35-.5.74-1,1.34-1.75l9.2,2.36c-2.39,8.44-11.14,13.65-20.37,12.45a19.67,19.67,0,0,1-17.64-19.92,19.92,19.92,0,0,1,16.61-20.1C629.44,267,639.4,272.19,641.16,280.16Z"/><path class="cls-2" d="M210.2,277.26a19.69,19.69,0,0,1-1.81,1c-1.81.77-3.65,1.49-5.63,2.29-2.27-3.8-5.34-5.76-9.72-4.39-2,.61-2.65,2.12-2.17,4.2,1.21,2.17,3.46,2.64,5.63,3.15s4.42.8,6.59,1.33c4.62,1.14,7.24,4.24,8.09,8.81s-.39,8.69-4.14,11.7c-5,4-15.54,4.68-21,1.39a12.19,12.19,0,0,1-5.73-7.49l7.61-3.38c.52.78.93,1.51,1.45,2.15,2.15,2.69,6.48,3.8,9.49,2.19a4.18,4.18,0,0,0,2.08-2.74,3.71,3.71,0,0,0-1.59-3,32.82,32.82,0,0,0-6-1.8,55.19,55.19,0,0,1-5.75-1.52c-4.48-1.76-6.4-5.39-6.46-10s1.66-8.57,6.07-10.76a19.51,19.51,0,0,1,15.95-.8A11,11,0,0,1,210.2,277.26Z"/><path class="cls-2" d="M463.54,267.61c6.94,13,13.2,26.37,20,39.72-2,1-4,.42-5.89.52s-3.7,0-5.61,0l-2.45-5.41H455.83l-2.43,5.24h-11l19.84-40.05Zm3,27.08-4-8.21-3.58,8.21Z"/><path class="cls-2" d="M98.46,267.61l20,40H106.7l-2.43-5.18H90.6c-.72,1.56-1.55,3.33-2.41,5.17H77.35c6.62-13.68,12.86-27,20-40Zm2.68,27-3.89-8.08-3.72,8.08Z"/><path class="cls-2" d="M340.57,267.7c6.57,13.15,13.13,26.31,19.79,39.64-1.91,1-3.91.39-5.81.51s-3.73,0-5.86,0l-2.31-5.37h-13.7l-2.3,5.2H319.44c6.51-13.77,13-27.09,20-40.15Zm2.59,26.91-3.9-8.48c-1.35,3.31-2.36,5.78-3.47,8.48Z"/><path class="cls-2" d="M235.33,277.51H225v-8.13H255.7v8h-9.76v30.17H235.33Z"/><path class="cls-2" d="M386,298.59H400.6v8.61c-2.41.76-17.88,1-24.56.35V269.4H386Z"/><path class="cls-2" d="M522.8,269.29h10.25v38.38H522.8Z"/><path class="cls-2" d="M427.48,307.71H417V269.34h10.5Z"/></g></g></svg>