<?xml version="1.0" encoding="utf-8"?>
<!-- Generator: Adobe Illustrator 26.0.3, SVG Export Plug-In . SVG Version: 6.00 Build 0)  -->
<svg version="1.1" id="Layer_1" xmlns="http://www.w3.org/2000/svg" xmlns:xlink="http://www.w3.org/1999/xlink" x="0px" y="0px"
	 viewBox="0 0 724.8 430.5" style="enable-background:new 0 0 724.8 430.5;" xml:space="preserve">
<style type="text/css">
	.st0{fill:#F5A61D;}
	.st1{fill:#FEFFE9;}
</style>
<g id="Layer_2_00000042726234543723071630000018115686431377539500_">
	<g id="Layer_1-2">
		<path class="st0" d="M584.4,145.9H558c-0.6-1.1-1.3-2.6-2.2-4.1c-2.1-3.6-4.4-7.1-6.3-10.8c-6.9-13.4-17-24.3-27.9-34.4
			c-6-5.5-12.6-10.4-19.6-14.6c-3.9-2.4-7.8-4.7-11.8-7c-0.8-0.3-1.5-0.6-2.3-0.8c-6.3,5.4-12.9,10-20.4,13
			c-5.9,2.4-11.9,4.2-18.1,5.4c-7.6,1.4-15.1,1.4-22.7,1.2c-3.3-0.1-6.7-0.8-10-1.1c-2.2-0.2-4.4-0.4-6.5-0.6
			c-0.4,0.5-0.7,1-0.9,1.6c-0.6,2.6-1,5.4-1.9,7.9c-2.6,6.9-6.3,13.4-10.9,19.3c-5.1,6.3-11.1,11.7-17.9,16.1
			c-6,4-12.6,7.1-19.4,9.3c-1.5,0.5-3.2,0.5-4.7-0.1c-8.7-3.2-17-7.6-24.4-13.2c-5.6-4.2-10.4-9.2-14.5-14.9
			c-4.5-6.4-8.4-13.1-10-20.9c-0.4-1.8-1.1-3.6-1.7-5.6c-10,2.2-20.3,2.9-30.5,2.2c-9.4-0.6-18.7-2.8-27.3-6.6
			c-6-2.6-11.6-6-16.7-10.1c-1.2,0.3-3,0.4-4.4,1.3c-12.6,7.4-24.1,16.6-34.1,27.1c-6.6,7.1-12.9,14.4-17.7,22.9
			c-2.8,4.9-5.6,9.9-8.4,14.9c-0.5,0.9-1.2,1.9-1.6,2.6c-8.1,0.9-23,0.4-25.8-0.9c0.6-1.7,1.1-3.4,1.9-5.1
			c4.8-11.3,10.9-22,18.1-31.9c5.2-7.2,10.8-14.1,16.9-20.6c6.1-6.3,13-11.8,19.8-17.4c7.5-6.1,15.8-11,24.2-15.7
			c0.5-0.3,1-0.6,1.6-0.9c3.1-1,4.9-3.2,6.2-6c3.1-6.9,7.6-13.1,13.1-18.2c3.8-3.5,7.6-7.1,11.7-10.3c6.5-5.1,13.8-9.2,21.6-12
			c6.2-2.2,12.5-4,18.8-5.7c3.2-0.7,6.4-1,9.6-1c10-0.4,20-0.4,29.7,2.1c8.2,2,16,5.2,23.2,9.6c0.5,0.3,1,0.7,1.6,0.9
			c0.6,0.2,1.2,0.4,1.8,0.6c1.6-0.9,3.4-1.8,5.2-2.8c6.8-3.8,14.1-6.7,21.7-8.4c9.5-2.4,19-2.4,28.6-2c9.3,0.5,18.5,2.5,27.2,5.9
			c10.9,4,21,10.1,29.8,17.7c7.5,6.5,13.6,14.3,18.2,23.1c10.6,4.3,20.8,9.6,30.3,15.9c6,3.9,11.2,8.9,17,13.2
			c6.3,5,12,10.6,17.1,16.8c5.2,6.1,9.7,12.8,14.8,19c3.3,4.3,6.3,8.9,8.9,13.7c1.2,2.1,1.8,4.6,3,6.5c2.1,3.2,3.1,6.9,4.8,10.2
			C584,143.3,584.3,144.6,584.4,145.9z M371.2,33.5c0.2,1.3,0.5,2.6,1,3.9c1.3,2.3,2.8,4.4,4.4,6.5c5.1,6.3,11.4,11.7,18.5,15.7
			c11.2,6.5,23.3,9.5,36.1,10.2c5.6,0.2,11.2-0.4,16.7-1.7c6.6-1.5,13-3.7,18.6-8.2c-0.9-3.3-2.6-6.5-4.9-9.1
			c-5.8-7.5-13.2-13.6-21.6-17.8c-5.7-2.9-11.8-5.2-18-6.7c-3.5-0.8-7.1-1-10.7-1.6c-7.1-1.2-14.2-0.4-21.1,1
			C383.5,27.1,377,29.8,371.2,33.5z M349.7,46.9c-1,0.5-2,1-3,1.6c-6.5,4.4-11.8,10.3-15.2,17.4c-6.4,12.8-4.5,28.2,4.7,39.2
			c2.2,2.7,4.5,5.2,7.1,7.5c4,3.5,8.5,6.2,13.4,8.2c17.2-6.5,29.9-24.1,29.2-38.2C364.1,69.5,356.3,58.4,349.7,46.9z M332.3,28.8
			C305,16.2,260.4,30,247.1,59.3c11.3,10.9,39.4,13.8,58.8,5.9C310.2,50.1,319.7,38.5,332.3,28.8z"/>
		<path class="st0" d="M574.2,335.6c-4.5,7.7-8.8,15-14.7,21.3c-4.1,4.4-8.1,9-12.5,13.1c-8.1,7.3-16.8,13.9-26.2,19.5
			c-8.3,5.1-16.9,9.8-25.8,13.8c-5.6,2.5-11.4,4.8-17.1,7c-5.2,2-10.4,3.9-15.7,5.6c-4.2,1.4-8.6,2.4-12.9,3.5
			c-8.7,2-17.4,4.2-26.2,5.7s-17.7,2.3-26.6,3.4c-5.4,0.6-10.9,1.2-16.3,1.8c-0.7,0.1-1.5,0.2-2.2,0.2c-11.2,0-22.5,0.2-33.7-0.1
			c-6.1-0.2-12.1-1.2-18.2-1.8c-5.2-0.5-10.4-1-15.6-1.7s-10.5-1.8-15.7-2.7c-3.2-0.6-6.4-1-9.5-1.7c-4.9-1-9.7-2.1-14.5-3.4
			c-4.5-1.2-9-2.7-13.5-4c-10.2-3.1-20.3-6.9-30-11.3c-11.4-5.1-22.3-11.2-32.7-18.1c-12.7-8.3-24.2-18.4-34-30.1
			c-5.2-6-9.5-12.6-12.9-19.8c2.9-1.1,26.4-1.1,29.9,0c4.8,7.3,11.4,13.2,17.9,19.1c12.1,11,26.3,18.8,41,25.6
			c11.7,5.5,23.9,9.4,36.2,13c10.1,3,20.4,5.3,30.9,6.7c4.2,0.5,8.3,1.5,12.5,2.1c5,0.7,10.1,1.1,15.2,1.6
			c17.6,1.5,35.2,1.1,52.8,0.5c7.5-0.2,15.1-1.6,22.6-2.5c4.7-0.6,9.4-1.1,14-1.9c5.5-1,11-2,16.4-3.4c6.5-1.6,12.9-3.5,19.3-5.5
			c9-2.7,17.8-6.1,26.3-9.9c9.6-4.4,18.9-9.4,27.8-15.1c9.5-6.1,18.3-13.2,26.2-21.3c2.3-2.4,4.4-5,6.4-7.7c0.9-1.4,2.5-2.2,4.1-2.2
			c8.1,0,16.2,0,24.4,0.1C572.4,335,573.3,335.2,574.2,335.6z"/>
		<path class="st1" d="M537.9,245.6c-21.4,0.3-38.2-16-38.5-37.5c-0.5-20.6,15.8-37.7,36.4-38.2c0.5,0,0.9,0,1.4,0
			c22.2,0,37.7,16.5,38.1,37.5S559.1,245.3,537.9,245.6z M555.3,208c0.1-9.9-4.6-16.8-13-19.1c-8.2-2.3-18.5,0.7-21.9,11.8
			c-1.3,4.6-1.3,9.4,0,14c3.3,11.7,15.5,14.7,23.5,11.4C551.2,223.2,555.2,216.9,555.3,208z"/>
		<path class="st1" d="M482.4,170c1,24.4,2,48.8,3.1,73.5h-19.2c-0.3-10.1-0.5-20.2-0.8-31.1c-6.2,5.6-11.1,11.6-17.1,17
			c-5.7-5.7-11.1-11.1-17.2-17.2c-0.3,10.9-0.5,21-0.8,31.4h-18.2c0.3-24.4,1.2-48.7,2.2-73.9c6.7,5.4,11.8,11.4,17.4,16.7
			s11,11.2,16.7,17.1c10.9-11.5,21.5-23.2,33-33.9L482.4,170z"/>
		<path class="st1" d="M358.1,203.5c10.9-11.8,21.6-23.2,33.4-33.9c2,24.6,3,49.1,3.4,73.9h-19c-0.2-10.1-0.5-20.3-0.7-31.3
			l-16.9,17.2L341,212.1c-0.3,10.9-0.6,21-0.9,31.5c-3.1,0-6,0.1-9,0.1s-5.7,0-9.1,0c0.2-24.6,1-48.9,2.5-73.5
			C336.2,180.9,347.1,192.1,358.1,203.5z"/>
		<path class="st1" d="M138.4,171.4h6.2c9.1,0,18.2,0,27.4,0c4.5-0.1,9,0.8,13,2.9c8,4.3,11.7,11.2,12.4,20c0.2,2.2,0.1,4.5-0.3,6.7
			c-1,6.1-3.5,11.4-9.5,14.8c5.4,9.1,10.7,18.1,16.4,27.9c-7.7,0.2-14.5,0.1-21.6,0.1L170,222.9h-12.5v20.6h-19.1V171.4z
			 M157.7,207.8c4,0,7.9,0.3,11.7-0.1c4.2-0.4,6.8-3.6,7.6-8.5c0.8-4.7-1.2-9.1-4.7-10.9c-0.4-0.3-0.9-0.4-1.4-0.6
			c-4.4-0.6-8.8-0.3-13.2-0.3V207.8z"/>
		<path class="st1" d="M591,243.5c-0.7-24.6-0.5-49.2,0-74.5c8.2,5.3,15,11.3,21.8,17.1s13.5,11.8,20.6,18.1v-32.9h17.7
			c1.3,3.7,1.3,69.7,0,74.4c-14.6-10.8-27.9-23-41.9-35.4v33.1L591,243.5z"/>
		<path class="st1" d="M72.7,171.5h50v15.6H91.5v11.8H122v16.1c-10,0.1-20,0-30.4,0v12.1h31.9v16.3H72.7V171.5z"/>
		<path class="st1" d="M19.6,225.4v18.4c-6.4,0.1-12.6,0-18.8,0c-0.8-2.7-1.2-62.7-0.4-72c0.8-0.1,1.6-0.2,2.4-0.3
			c10.1,0,20.2,0,30.4,0c7.6,0,14.3,2.4,19.2,8.5c1.7,2.2,3.1,4.5,4.1,7.1c2.6,6.5,3.1,13.8,1.2,20.6c-1.7,7.9-7.8,14.1-15.7,16
			c-3.5,0.9-7.1,1.5-10.7,1.7C27.6,225.6,23.8,225.4,19.6,225.4z M19.7,210c3.9-0.2,7.6-0.3,11.3-0.8c4-0.6,6.4-3.3,7.3-7.1
			c0.5-2.3,0.5-4.7,0-7c-0.7-4.1-4.1-7.2-8.2-7.5c-3.4-0.3-6.9-0.1-10.4-0.1L19.7,210z"/>
		<path class="st1" d="M722.2,187.1l-14,5.7c-0.6-0.8-1-1.5-1.5-2.2c-3.3-5.7-10.2-8.3-16.5-6.1c-2.7,0.9-4.2,2.6-4.4,5.4
			s0.9,5.1,3.5,6.1c3.3,1.2,6.6,2.2,10,3c3,0.7,6.2,0.9,9.2,1.7c12.4,3.4,17.8,14.1,16,25.3c-1,7.4-5.9,13.6-12.8,16.4
			c-9.2,3.9-19.4,4.6-29,1.8c-8.2-2.3-13.6-7.5-16.2-16.1c4.5-2.8,9.7-4.2,14.5-6.2c0.3,0.3,0.6,0.6,0.9,1c3.9,7.2,11,10.1,18.7,7.5
			c2.7-0.9,4.5-2.6,4.8-5.6c0.3-2.7-1.1-5.3-3.5-6.5c-3.7-2-7.8-2.4-11.9-2.9c-5-0.6-9.8-1.8-14-4.9c-2.8-1.9-5-4.7-6.2-7.8
			c-4.4-11.9-0.7-26.7,14.7-31c7.1-2.1,14.7-2.2,21.8-0.4c7.4,2,13,6.2,15.7,13.7C722,185.6,722.1,186.3,722.2,187.1z"/>
		<path class="st1" d="M211,227.5l14.1-5.8c1.9,2.3,3.3,4.6,5.3,6.2c4.3,3.5,9.4,3.8,14.6,2.3c2.7-0.8,4.6-2.6,4.9-5.6
			c0.4-2.7-1.1-5.3-3.6-6.5c-3.6-2-7.6-2.4-11.5-2.9c-5-0.6-9.8-1.7-14.1-4.6c-2.7-1.8-4.9-4.3-6.3-7.3c-4.4-10-2.7-25.5,12.1-31
			c8.6-3.3,18.1-3.4,26.8-0.3c5.9,1.9,10.7,6.4,12.8,12.3c0.2,0.9,0.4,1.8,0.5,2.8l-14,5.6l-1.4-2.4c-3.3-5.6-10.1-8.1-16.2-6
			c-2.6,0.9-4.3,2.4-4.5,5.3s0.7,5.2,3.6,6.3c3.4,1.2,6.9,2.2,10.4,3c4.2,1.1,8.6,1.6,12.6,3.2c8.4,3.5,12,10.6,12,19.4
			s-3.5,16-11.6,19.9c-10.7,5.4-23.1,5.8-34.1,1.1C216.9,240,212.7,234.9,211,227.5z"/>
		<path class="st1" d="M284.1,171.6h19c0.7,2.6,0.9,67.1,0.2,71.9h-19.2V171.6z"/>
		<path class="st1" d="M272.7,269.2c6.4,0,12.5-0.2,18.6,0c11.6,0.4,14.9,11,11.5,19.4c-0.7,1.6-2.3,2.9-3.7,4.6
			c2.6,4.5,5.4,9.2,8.5,14.5c-4.1,0.3-7.8,0.1-11.5,0.1l-6.9-11.3H283v11.1h-10.3V269.2z M283.1,277.6v11.1c1.8,0.1,3.6,0.1,5.5,0
			c2.9-0.3,4.8-2.7,4.7-5.8c0.1-2.8-2-5.1-4.7-5.3c-0.1,0-0.3,0-0.4,0C286.6,277.5,285,277.6,283.1,277.6z"/>
		<path class="st1" d="M562.9,290.3v17.4h-9.7v-39.7c8.1,5.6,14.8,12.2,22.6,18.6v-17.2h9.9c0.2,13.1,0.3,26.1-0.1,39.1l-0.8,0.4
			L562.9,290.3z"/>
		<path class="st1" d="M153.4,269.3h10c0,9.1,0.3,17.9-0.1,26.8c-0.3,7.2-5,11.6-12.2,12.4c-3,0.3-6,0.2-8.9-0.3
			c-5.7-1-10.1-5.7-10.7-11.5c-0.2-1.9-0.3-3.7-0.3-5.6c0-7.1,0-14.2,0-21.6h10.3v3.7c0,7,0,14,0,21c0,4,2.1,6.1,5.9,6.2s6-2.1,6-6
			c0.1-7,0-14,0-21L153.4,269.3z"/>
		<path class="st1" d="M641.2,280.2l-8.7,3.5c-0.4-0.5-0.8-0.9-1.2-1.4c-2.2-3.5-5.6-4.6-9.4-3.9c-3.6,0.7-6.2,2.9-6.8,6.6
			c-0.4,2.4-0.4,4.9,0,7.4c0.6,3.7,3.2,5.8,6.9,6.5s6.7,0,8.9-3.2c0.3-0.5,0.7-1,1.3-1.8l9.2,2.4c-2.4,8.4-11.1,13.6-20.4,12.5
			c-10.2-1.1-17.8-9.7-17.6-19.9c-0.2-9.9,6.8-18.5,16.6-20.1C629.4,267,639.4,272.2,641.2,280.2z"/>
		<path class="st1" d="M210.2,277.3c-0.6,0.4-1.2,0.7-1.8,1c-1.8,0.8-3.6,1.5-5.6,2.3c-2.3-3.8-5.3-5.8-9.7-4.4
			c-2,0.6-2.6,2.1-2.2,4.2c1.2,2.2,3.5,2.6,5.6,3.1s4.4,0.8,6.6,1.3c4.6,1.1,7.2,4.2,8.1,8.8s-0.4,8.7-4.1,11.7
			c-5,4-15.5,4.7-21,1.4c-2.8-1.6-4.9-4.3-5.7-7.5l7.6-3.4c0.5,0.8,0.9,1.5,1.4,2.1c2.1,2.7,6.5,3.8,9.5,2.2
			c1.1-0.6,1.8-1.6,2.1-2.7c0-1.2-0.6-2.3-1.6-3c-1.9-0.8-3.9-1.4-6-1.8c-1.9-0.4-3.9-0.9-5.8-1.5c-4.5-1.8-6.4-5.4-6.5-10
			s1.7-8.6,6.1-10.8c5-2.5,10.8-2.8,15.9-0.8C206.6,270.8,209.3,273.7,210.2,277.3z"/>
		<path class="st1" d="M463.5,267.6c6.9,13,13.2,26.4,20,39.7c-2,1-4,0.4-5.9,0.5s-3.7,0-5.6,0l-2.5-5.4h-13.8l-2.4,5.2h-11l19.8-40
			L463.5,267.6z M466.5,294.7l-4-8.2l-3.6,8.2H466.5z"/>
		<path class="st1" d="M98.5,267.6l20,40h-11.8l-2.4-5.2H90.6c-0.7,1.6-1.6,3.3-2.4,5.2H77.3c6.6-13.7,12.9-27,20-40L98.5,267.6z
			 M101.1,294.6l-3.9-8.1l-3.7,8.1H101.1z"/>
		<path class="st1" d="M340.6,267.7c6.6,13.1,13.1,26.3,19.8,39.6c-1.9,1-3.9,0.4-5.8,0.5s-3.7,0-5.9,0l-2.3-5.4h-13.7l-2.3,5.2
			h-10.9c6.5-13.8,13-27.1,20-40.1L340.6,267.7z M343.2,294.6l-3.9-8.5c-1.4,3.3-2.4,5.8-3.5,8.5H343.2z"/>
		<path class="st1" d="M235.3,277.5H225v-8.1h30.7v8h-9.8v30.2h-10.6V277.5z"/>
		<path class="st1" d="M386,298.6h14.6v8.6c-2.4,0.8-17.9,1-24.6,0.4v-38.1h10V298.6z"/>
		<path class="st1" d="M522.8,269.3H533v38.4h-10.2V269.3z"/>
		<path class="st1" d="M427.5,307.7H417v-38.4h10.5L427.5,307.7z"/>
	</g>
</g>
</svg>
