<svg xmlns="http://www.w3.org/2000/svg" viewBox="0 0 85.28 71.33"><defs><style>.cls-1{fill:#fffdec;}</style></defs><g id="Layer_2" data-name="Layer 2"><g id="Layer_1-2" data-name="Layer 1"><path class="cls-1" d="M166.79,11.16a6.12,6.12,0,0,1-2.69,5.55,8.54,8.54,0,0,1-4.69,1.22H154v9.58H152.7V4.4h6.71a8.34,8.34,0,0,1,4.69,1.25A6.13,6.13,0,0,1,166.79,11.16Zm-1.3,0a5,5,0,0,0-2.12-4.5,7.21,7.21,0,0,0-4-1H154v11h5.43a7.21,7.21,0,0,0,4-1A5,5,0,0,0,165.49,11.16Z" transform="translate(-152.7 -4.4)"/><path class="cls-1" d="M181,11.16q0,5.49-4.8,6.46l4.91,9.59-1.18.5-5.06-9.84-.48,0-.77,0h-5.44v9.58H166.9V4.4h6.72a8.34,8.34,0,0,1,4.69,1.25A6.13,6.13,0,0,1,181,11.16Zm-1.3,0a5,5,0,0,0-2.13-4.5,7.15,7.15,0,0,0-3.95-1h-5.44v11h5.44a7.15,7.15,0,0,0,3.95-1A5,5,0,0,0,179.7,11.16Z" transform="translate(-152.7 -4.4)"/><path class="cls-1" d="M195.2,21a6.36,6.36,0,0,1-2.06,4.78,7.31,7.31,0,0,1-10,0A6.32,6.32,0,0,1,181.11,21V11.16a6.39,6.39,0,0,1,2-4.78,7.27,7.27,0,0,1,10,0,6.4,6.4,0,0,1,2.07,4.78Zm-1.29,0V11.16a5.14,5.14,0,0,0-1.69-3.9,5.95,5.95,0,0,0-8.14,0,5.14,5.14,0,0,0-1.69,3.9V21a5.25,5.25,0,0,0,1.68,3.92,5.7,5.7,0,0,0,4.09,1.61,5.57,5.57,0,0,0,4.06-1.61A5.22,5.22,0,0,0,193.91,21Z" transform="translate(-152.7 -4.4)"/><path class="cls-1" d="M201.89,22.21a5.27,5.27,0,0,1-1.67,3.94,5.83,5.83,0,0,1-4.1,1.58h-3V26.52h3a4.32,4.32,0,0,0,3.16-1.25,4.06,4.06,0,0,0,1.31-3.06V4.63h1.3Z" transform="translate(-152.7 -4.4)"/><path class="cls-1" d="M214.27,27.73H203V4.4h11.27V5.65h-10v8.58h7.44v1.23h-7.44V26.52h10Z" transform="translate(-152.7 -4.4)"/><path class="cls-1" d="M223.93,27.73h-4.22A7.22,7.22,0,0,1,214.53,26a6.51,6.51,0,0,1-1.87-5V11.16a6.56,6.56,0,0,1,1.86-5,7.22,7.22,0,0,1,5.19-1.8h4.22V5.65h-4.22a5.94,5.94,0,0,0-4.27,1.42,5.37,5.37,0,0,0-1.5,4.09V21a5.43,5.43,0,0,0,1.49,4.1,5.89,5.89,0,0,0,4.28,1.43h4.22Z" transform="translate(-152.7 -4.4)"/><path class="cls-1" d="M238,5.65h-6.14V27.51h-1.3V5.65H224.4V4.4H238Z" transform="translate(-152.7 -4.4)"/><path class="cls-1" d="M177.07,29.65h-6.14V51.51h-1.3V29.65h-6.14V28.4h13.58Z" transform="translate(-152.7 -4.4)"/><path class="cls-1" d="M192,51.51h-1.29v-12H179.14v12h-1.28V28.63h1.28v9.6h11.52v-9.6H192Z" transform="translate(-152.7 -4.4)"/><path class="cls-1" d="M206.58,35.16q0,5.49-4.8,6.46l4.91,9.59-1.17.5-5.07-9.84-.48,0-.77,0h-5.43v9.58h-1.28V28.4h6.71a8.34,8.34,0,0,1,4.69,1.25A6.13,6.13,0,0,1,206.58,35.16Zm-1.3,0a5,5,0,0,0-2.12-4.5,7.18,7.18,0,0,0-4-1h-5.43v11h5.43a7.18,7.18,0,0,0,4-1A5,5,0,0,0,205.28,35.16Z" transform="translate(-152.7 -4.4)"/><path class="cls-1" d="M218.5,51.73H207.24V28.4H218.5v1.25h-10v8.58H216v1.23h-7.44V50.52h10Z" transform="translate(-152.7 -4.4)"/><path class="cls-1" d="M230.15,51.73H218.89V28.4h11.26v1.25h-10v8.58h7.44v1.23h-7.44V50.52h10Z" transform="translate(-152.7 -4.4)"/><path class="cls-1" d="M182.51,53.65h-6.14V75.51h-1.3V53.65h-6.14V52.4h13.58Z" transform="translate(-152.7 -4.4)"/><path class="cls-1" d="M194.22,75.73H183V52.4h11.27v1.25h-10v8.58h7.44v1.23h-7.44V74.52h10Z" transform="translate(-152.7 -4.4)"/><path class="cls-1" d="M211.54,75.3l-1.24.35-2.1-6H198l-2.11,6-1.23-.35,7.85-22.65h1.11Zm-3.78-6.93L203.12,55l-4.66,13.39Z" transform="translate(-152.7 -4.4)"/><path class="cls-1" d="M228.37,75.51h-1.29V55.26l-7,11.25-7-11.25V75.51h-1.29V52.63h1.15L220,64.1l7.16-11.47h1.17Z" transform="translate(-152.7 -4.4)"/></g></g></svg>