<svg xmlns="http://www.w3.org/2000/svg" viewBox="0 0 457.55 524.41"><defs><style>.cls-1{fill:#f9b601;}.cls-2{fill:#3c3a3b;}</style></defs><g id="Layer_2" data-name="Layer 2"><g id="Layer_1-2" data-name="Layer 1"><path class="cls-1" d="M333.83,371.6c3.74,11.3,5.7,22.84,4.9,34.8A110.94,110.94,0,0,1,330,442.63c-.62,1.45-.93,3.23-3.07,4.18-2.89-13-8.3-24.47-18.49-33.13-2.33,1.21-1.1,2.57-.72,4,8.77,32.3-4.29,65.6-35.15,82.85-17,9.51-35.09,16.47-53.91,23.92,7.78-53.94-2.78-101-48.24-135.54-.33,2.14.86,6.72,2.23,8.38,14.77,17.85,20.32,38.73,20,61.45-.15,11.64-4.38,26.27-9.66,33.8.11-13.44-.82-26.13-4.47-38.42-3.7-12.48-9.58-23.6-21.11-31.16,8.62,16.57,16.63,33.2,10.47,52.58-2-5.39-2-11.23-4.29-16.55-5-11.77-14.22-19.94-23.68-27.87-18-15.08-37.9-27.67-56.13-42.47-14.95-12.14-28-26.05-37.55-42.76-7.45-13.11-12.26-27.37-10.39-43a33.56,33.56,0,0,1,.58-3.45,9.69,9.69,0,0,1,1.09-1.77,51.66,51.66,0,0,0,18.34,27.09c9.25,7.15,19.32,13,29.68,18.59-1.21-5.63-4.45-9.91-7.81-14C67.68,317.14,54.56,307.94,44,296.09c-15.57-17.48-28-36.53-31.46-60.28a106.86,106.86,0,0,1-.42-31c3,9.9,6.49,18.48,12.34,25.86,9,11.32,20.13,19.92,32.8,26.81a204.78,204.78,0,0,1,22.07,13.65,85.44,85.44,0,0,1,18,17.15c1.78-8.51-.79-15.11-5.87-21-6.81-7.95-15.55-13.51-24.06-19.33-16.11-11-31.58-22.74-43.81-38.27-11.82-15-17-32.62-20.22-50.87A218.21,218.21,0,0,1,2,91.12c.12-.9.34-1.8.79-4.08,2.43,10.07,4.34,18.75,6.61,27.33,6.35,23.89,16.88,45.61,34.93,62.91,10.43,10,23.23,16.4,36.43,22.19,11.91,5.23,24.75,7.52,36.67,12.64,9.08,3.89,17.74,8.17,24.43,16.13-3.66-17.1-1.36-33.39,5-49.32a76.72,76.72,0,0,0,17.27,40.21c8.8,10.67,19.16,19.72,29.68,28.64,18.79,15.94,37.63,31.86,51.51,52.64,5.37,8,10.63,16.08,14.26,25.08a2.88,2.88,0,0,0,2.88,2.12,114.47,114.47,0,0,1,5.59-44.67c-2.24-1.14-3.73,1-6.17.27A57.16,57.16,0,0,1,277.74,255c-4-4.28-9-8-10.86-14.89,11.09,4,21.62,3.15,32.22,1.73,7.79-1,15.63-1.34,23.3.92,2.39.7,5.47,1,5.42,4.7-.63.08-1.1.29-.92,1.07l-2.51.28c1.13.73,1.94.9,2.54-.25.69.25,1.1-.07,1.37-.68,9.49-.66,17.16,3.38,23.53,9.85,4,4.07,3.24,9.85-1.06,14.72-11.94-6.23-23.79-4.33-31.37,9.24-3.92,7-3.1,14.82-.89,22.38a85.28,85.28,0,0,0,5.92,15.35c.84,1.62,1.77,3.2,1.15,5.15-13.64-10.66-21.11-31.13-18.41-52.16a30.56,30.56,0,0,0-2.83,14.85c1,16.18,8.79,29.16,18.81,41.37,10.32,12.6,22.69,23.3,32.54,36.31,9.56,12.63,14.83,26.16,10.57,43,5.18-10.86,3.93-24.29-3.09-37a70.64,70.64,0,0,0-10.23-14.6c-10.78-11.43-11.18-25.5-9.35-39.78,2.12-16.56,12-28.89,23.52-40.08,10.1-9.77,21.55-17.78,33.48-25,27.32-16.64,42.91-41.51,51.14-71.69.46-1.71.56-3.53,2.17-5.35,1.49,17.52-.6,34.3-4.25,50.94a124.39,124.39,0,0,1-6.23,19.45c-3.95,9.91-11.2,17.18-19,24s-16.2,12.83-23,20.62c-5.35,6.1-9.49,12.75-8.19,23.08,7.35-15.53,21.71-21.68,32.68-31.54,5.85-5.26,10.84-11.19,12.57-19.19,2.38.3,1.56,2,1.6,3.1.57,14.17-5.17,26.2-12.95,37.5-5,7.3-11.48,13.36-17.48,19.82-6.49,7-11.41,14.89-13.47,24.43,9.33-6,16.76-13.58,21-25.41a36.6,36.6,0,0,1-2.74,23.12c-4.34,9.83-10.87,18.28-17.29,26.79-10.4,13.77-18.81,29-30.16,42.08-1.18,1.35-2.34,2.73-4,4.62-3.16-9.18-5.85-17.87-10.28-25.86a68.53,68.53,0,0,0-14.09-18c-1.27-1.15-2.29-3-4.53-2.54-.14-.38-.27-.77-.4-1.15-.18.14-.52.37-.5.41A9.3,9.3,0,0,0,333.83,371.6ZM314,250c-2.68-3.56-12.09-3.48-19.38.14,5.81.68,6.16.77,8.47,2.31,5,3.33,5.61,3.07,6.72-2.94C311.23,249,312.4,251,314,250Z"/><path class="cls-2" d="M81.16,1.85c7-1.33,12.63-2,17.3,4.86,6.75,9.86,15,18.73,22.56,28,.68.83,1.19,2,3.43,2V13.07c0-.16,0-.33,0-.49-.34-7.06-.34-7.06-6.27-10.61C121,.46,130.39.36,133.81,1.8c-5.91,3.12-5.89,3.12-5.88,10.83,0,11.44,0,22.87,0,34.37-3.74.34-6.23-1.11-8.39-3.76-7.88-9.7-15.87-19.3-23.83-28.93-1-1.23-2.14-2.38-3.14-3.5-2,.92-1.4,2.45-1.42,3.63-.06,6.67,0,13.33,0,20,0,4.68-.75,9.83,7.06,10.35L97.05,46H81.79c7.56-1.54,5.94-7.43,6-12.24.16-7,.07-14,0-21C87.84,8,89,2.51,81.16,1.85Z"/><path class="cls-2" d="M270.54,44c2.67.44,4.57-.14,6.91,2H257.64c7.72-1.76,5.81-7.73,5.85-12.7.06-7,0-14,0-21,0-7.55,0-7.55-5.91-10.31.09-.3.19-.86.29-.86C266.83,1,275.8.68,284.75,1c4.41.15,8.06,2.53,9,7.27,1.06,5.06-.77,9.24-5,12.17a58.91,58.91,0,0,1-6.7,3.45c5.32,7.56,10.51,15.07,17,21.51-4.35,2.27-8.26,1.56-11.11-2.2-5.17-6.83-10.31-13.69-15.53-20.63,2.25-1.64,4.52-.59,6.56-1.15,3.86-1.05,6.6-3.21,7.5-7.17.83-3.66.2-7.1-3.21-9.26-3.63-2.32-7.62-2-11.55-.77a2.39,2.39,0,0,0-1.54,2.37C269.94,19.05,269.58,31.51,270.54,44Z"/><path class="cls-2" d="M250.63,35.19c-.27,3.81-.52,7.31-.77,10.87H214.17c6.05-3.7,6.26-3.7,6.42-10.82.18-8.48-.05-17-.09-25.46,0-3.5-.2-6.85-5.11-6.62-.67,0-1.09-.65-1.08-2H249.4c-.16,3.38,0,6.73-1.4,9.76-1.11.14-1.95-.23-1.89-.83.57-5.33-3-5.95-6.87-6.06s-7.61-.62-11.67.81V20.71c9.21,2.16,12.53,1.1,16.78-6.32a78.77,78.77,0,0,1-.1,17.7c-2.67-3.09-1.43-6.93-5.89-7.36-10.9-1.06-11.87-.41-10.9,10.77.65,7.51.65,7.52,8.4,7.79,1.65.06,3.32-.15,5-.11,4,.1,6.78-1.23,7-5.79C247.84,36.42,248.17,35.38,250.63,35.19Z"/><path class="cls-2" d="M29.38,1.16H48.16c-.24.8-.32,1.37-.42,1.37-5.26.14-6.36,3.22-6.16,7.88.28,7-.09,14,.12,21,.23,7.69,3.73,10.9,11.64,11.23C62.73,43,67.46,40,68,32.31c.53-8.12,0-16.31.37-24.46C68.53,3,64.45,3.5,62,1.3H77.78c-8.31,2-5.66,8.79-6,14.05s.06,10.66-.11,16c-.28,9.3-4.57,14-13.74,15.45a26.62,26.62,0,0,1-7.46.31c-12.36-1.49-15.43-4.91-15.41-17.39,0-5.83,0-11.67,0-17.5C35.06,7.71,36.13,2.53,29.38,1.16Z"/><path class="cls-2" d="M305.69,34.49c1.45.11,1.84.7,2,1.63,1,5.78,3.66,7.72,10.78,7.84,6.68.12,11.31-2.78,12.44-7.77,1-4.43-1.05-8.11-5.52-9.08-3.56-.78-7.25-.93-10.87-1.49-6.35-1-9.52-3.58-10.41-8.37-1.11-6,1.28-11.78,6.42-14.57,7.82-4.24,15.67-2.89,23.77.18-.8,3.22.06,6.44-1.62,9.18-1.18-.11-2-.47-1.94-1.47.59-6.11-3.87-6.63-8-7.13-6.08-.73-10.41,1.44-12.15,5.69s.32,9.15,4.92,10.23a68.73,68.73,0,0,0,11.84,1.73c11,.6,11.94,12.1,7.41,18.25-4.87,6.6-11.84,8.09-19.48,7.84a10.58,10.58,0,0,1-1.47-.28C303.8,45.05,303.51,47.19,305.69,34.49Z"/><path class="cls-2" d="M59.54,155.16c5.32,2.7,10.51,2.86,16.48,2-2.53,4.58-6,5.49-9.66,4.4-8.13-2.43-16.28-5.19-23.36-9.9-7.38-4.91-8.78-12.71-7.2-20.89,1.51-7.82,6.71-12.43,14.41-14.14a27.89,27.89,0,0,1,6.44-.65c9.95.15,16.94,5.09,18.9,13.19a20.46,20.46,0,0,1-10.73,23.52C63.23,153.53,61.58,154.22,59.54,155.16ZM40.91,133.55c0,11.46,6.49,19.37,15.86,19.23,8.29-.11,13.89-6.93,13.88-16.91,0-10.59-6.21-17.53-15.67-17.54C46.26,118.32,40.94,124.08,40.91,133.55Z"/><path class="cls-2" d="M317.14,101.23H301.07c.89-2.63,3.34-.87,4.74-3.25.78-3.93.33-8.86.18-14.5-6.2,0-12.15,0-18.09,0-.75,0-2,.38-2.16.88-1,3-.26,6.23-.36,9.36-.1,3.48.49,6.11,4.56,6.5a5.77,5.77,0,0,1,.18.93H275c6.4-1.21,4.81-6.06,4.85-10,0-5.49.1-11,0-16.48-.08-3.7,1.82-8.6-4.76-9.31h16.33c-9.6,3.27-4.73,9.92-6.58,15a117.25,117.25,0,0,0,21.68.18c-1.88-5.2,3.25-11.87-5-15H317c-1.19,2.07-3.64.77-4.94,2.9v30C313.56,100.34,315.84,98.58,317.14,101.23Z"/><path class="cls-2" d="M200.18,5c-2.06-2.25-5-.38-5.71-3.78h14.28c-4.63,2.53-5.54,7.2-7.22,11.34-4.26,10.47-8.47,21-12.75,31.42-.52,1.28-.56,2.91-2.72,3-2.42.09-2.57-1.68-3.16-3.15-4.71-11.72-9.45-23.44-14.09-35.19-1.18-3-2.23-5.93-6-7.22h17.47c-.78,2.8-3.85.71-5.28,3.42,3,10.34,8.08,20.75,12.48,33C192.11,26,197,15.69,200.18,5Z"/><path class="cls-2" d="M398.18,154.67c-3.27.45-5.08-1-6.73-3.07Q382.78,141,374,130.4c-1.13-1.38-2.35-2.69-4.37-5a140.35,140.35,0,0,0,.21,25c.21,2.22,3.2,1.22,4.47,3.49H362.09c5.26-1.77,4.55-6.08,4.58-10,0-5.49-.13-11,.08-16.47.15-3.93-.28-7.26-5-8.5,4.88-.94,9-1.87,12.65,3.13,6.14,8.47,13.05,16.36,19.95,24.88,1.84-2.83.94-5.49,1-8,.15-4-.07-8,.05-12,.11-3.7-.09-7.06-5.11-8a23.76,23.76,0,0,1,12.38-.13c-3.79.63-4.65,3-4.58,6.6C398.32,135.14,398.18,144.76,398.18,154.67Z"/><path class="cls-2" d="M444.77,102c-3.43.5-5.49-.81-7.29-3.07-3.53-4.42-7.23-8.7-10.84-13.06a150,150,0,0,0-11.12-12.47c.43,9.45-3.17,19.17,2.29,28.15a24.64,24.64,0,0,1-9.59-1c4.23-1.65,3.77-4.86,3.78-7.89,0-6.49-.12-13,.06-19.48.1-3.47-.15-6.41-5.11-6.72,5.69-2.75,9.39-2,12.55,1.91,5.84,7.27,11.67,14.54,17.6,21.73,1.1,1.33,1.89,3.15,4.31,3.69a191.25,191.25,0,0,0-.17-24.31c-.2-3.11-3.79-1.45-5.29-4h12.76c-5.57,1.58-4.46,6.28-4.53,10.19A228.54,228.54,0,0,0,444.77,102Z"/><path class="cls-2" d="M411.54,154.37c3.7-3.16,3.62-6.18,3.66-9.09.09-6.14,0-12.29,0-18.43,0-3.39-.17-6.7-4.58-7.16.43-2.15,1.83-1.57,2.84-1.58,5.47,0,10.95-.07,16.43,0,10.39.16,17,5.18,18,13.59,1.22,10.34-4.43,19.18-14,21.83a17.93,17.93,0,0,1-4.39.79C424,154.42,418.57,154.37,411.54,154.37Zm9-18.49c0,4,0,8,0,12,0,1.72.14,3.14,2.35,3.75,7.6,2.11,16.53-2.22,18.35-9.81,3.21-13.32-2.11-22.15-17.14-21-2.8.21-3.72,1.44-3.61,4.11C420.65,128.54,420.54,132.21,420.55,135.88Z"/><path class="cls-2" d="M209,126.3v23.39c0,3.48,3.79,1.76,5.87,4.15H202.08c5.34-1.47,4.18-6,4.38-9.5.35-6,0-12,.14-18,.06-3.41-.19-6.46-5.21-6.82,5.88-2.65,9.23-1.91,12.52,2.18,6.74,8.34,13.49,16.68,21,24.73-.58-9.28,3.14-18.76-1.95-27.87,1.37-.78,3.66-.31,5.81-.27-1,12.05-.31,24-.27,36.07-3.22,1-5.13-.5-6.9-2.67q-9-11-18.12-21.91C212.46,128.61,211.88,126.89,209,126.3Z"/><path class="cls-2" d="M381,100.63c-3.62,1-11.44,1.17-16.34.13,7.55-1.53,5.81-6.78,5.92-11.13.14-5.16.08-10.32,0-15.48,0-3.58.33-7.46-4.91-8.64,8.15-.07,16-1.87,23.84,0,5.77,1.42,7.25,8.5,3.21,13.39-1.78,2.15-4.29,3.07-7.54,4.5a198.43,198.43,0,0,0,13.72,17.34c-6,1.58-6.35,1.48-9.77-3L377.63,82.52c1.7-1.49,3.65-.66,5.29-1.16,3.13-1,5.37-2.67,6-6,.45-2.6.06-5.09-2.21-6.75-2.79-2-6-1.76-9.11-1-1.62.4-1.7,1.89-1.7,3.24,0,8.32.23,16.66-.12,25C375.57,99.73,379,99.08,381,100.63Z"/><path class="cls-2" d="M380.65,44.52c6.59.53,6.48-3.64,6.44-8.06-.12-10.61,0-21.21,0-31.72-7.71-1.77-8.13-1.57-14.84,7.18-1.11-3.79-.52-7.27-.76-11h38.18c-.16,3.78.23,7.29-1.35,11-3.3-1.81.1-7-4.42-7.54a28,28,0,0,0-9.75,0,384.61,384.61,0,0,0,0,39.31c2.08,1.63,4.33-.28,6,1.38C397,47.09,383.2,46.87,380.65,44.52Z"/><path class="cls-2" d="M427.73,46c.53-2.2,1.89-1.76,3-1.81,2.53-.1,3.15-1.54,3.49-3.87,2.12-14.49-6.25-24.48-14.5-34.59-1.23-1.51-3.7-.59-4.57-2.58,5.09-4,9.39-3.67,12.74,1.55,3.75,5.84,7.14,11.91,11.07,18.52,3.89-6.58,7.75-12.74,11.21-19.11,1.62-3,3.48-4.19,7.42-2.91-2.79,4-5.45,7.66-8,11.41-5.2,7.56-10.47,15-8.86,25.12.57,3.66.62,6.53,5.25,6.38.46,0,.95.72,2.4,1.89Z"/><path class="cls-2" d="M163.28,64.4c11.88,0,19.24,6.73,19.18,17.51-.06,11.64-8.8,20.28-20.64,20.4-11.43.11-19-7.5-18.94-19.1S150.8,64.38,163.28,64.4ZM148.71,81.86c0,10.67,6,17.75,14.8,17.7,8,0,13-6,13-15.66,0-10.48-5.29-16.73-14.25-16.78S148.67,72.2,148.71,81.86Z"/><path class="cls-2" d="M138.27,134.62c4.4-1.22,10.44,3.15,12.84-4.62v11.61c-2.57-7-8.14-4-12.91-4.33-1.2,4.7.24,9.12-.44,14.25,6.73-.67,14.37,3.88,17.57-7.72,1.13,4.4.19,7.08.21,10.24H128.48c4.44-2.06,3.77-5.92,3.76-9.54,0-5.82,0-11.64,0-17.47,0-3.46.75-7.45-5.9-7,.42-.46.83-.93,1.25-1.4H155a12.94,12.94,0,0,1-1.34,7.79c-2.91-6-5-6.64-15.12-5.16-1.29,1.92-.51,4.13-.62,6.21S137.28,131.78,138.27,134.62Z"/><path class="cls-2" d="M327.3,101.16c4.67-1.22,4.23-4.69,4.19-8-.07-6,0-12,0-18,0-3.87,1.05-8.34-4.86-9.64h28.16a26.65,26.65,0,0,1-1.54,8.11c-2.51-5.41-7.59-7.46-13.63-5.85-2.71.73-3.35,4.65-2.13,13,7.48,1.84,9.88,1.15,13-4.31.82,4.54.4,8.49-.05,12.92-2.58-7.19-7.89-5.42-13.09-4.78a73.09,73.09,0,0,0,0,14.12c6.59-.43,14.38,4.07,18.29-6q-.36,4.23-.71,8.44Z"/><path class="cls-2" d="M84.36,118.51H96.67c-3.48,0-4.1,2.34-4.11,5,0,6.81-.22,13.63.16,20.43.27,4.83,3.42,7.1,8.94,7.41,6,.33,10.36-1.77,11.21-6.12,1.45-7.39.86-14.9.45-22.37-.14-2.47-2.24-3.21-4.19-4.33h11.21c-3.66.39-3.74,3.12-3.82,5.7-.17,6.14-.08,12.3-.39,18.44-.37,7.41-3.58,10.83-10.8,12a24.49,24.49,0,0,1-9.9-.47c-5.2-1.24-8.09-4.41-8.2-9.82q-.18-9.74-.12-19.46C87.12,122.39,86.89,120.13,84.36,118.51Z"/><path class="cls-2" d="M188.31,65.82a42.62,42.62,0,0,1,15.48-.14c-5.34.9-5.29,4.68-5.24,8.44.07,5.49,0,11,.28,16.46.24,5.12,3.19,7.59,8.91,7.93,6.65.41,10.93-1.82,11.68-6.72,1.12-7.25.5-14.6.4-21.91,0-3.45-3.61-2.25-5.17-4.33,4.43-1,8.57-.49,13.12,0-5.32,1.19-4.93,5-4.9,8.73,0,5.32,0,10.65-.28,16-.42,6.77-3.62,10.12-10.25,11.54a23.89,23.89,0,0,1-10.87-.37c-4.89-1.22-7.92-4.14-8.05-9.4-.16-6.15-.34-12.3-.24-18.45C193.25,70,193.49,66.57,188.31,65.82Z"/><path class="cls-2" d="M133.24,66.56c-.34,3-.6,5.18-.86,7.4l-1.28.89c-.43-7.44-5.12-8-10.26-7.64-4,.29-6.65,2.49-6.92,6.55s2.42,5.9,6.19,6.37c2.32.28,4.63.53,6.94.86,3.58.51,6.91,1.39,8.1,5.5,1.24,4.27,0,7.9-2.91,11-3.59,3.76-8.26,4.83-13.23,4.77a25,25,0,0,1-9.55-2.08c.16-2.66.31-5.31.54-9.12,4.15,8,6.94,9.47,13.56,8.31,4.31-.76,7.19-3.9,7-7.77-.21-4.51-3.23-5.75-7.1-6-2-.15-4-.55-6-.72-4.44-.38-7.74-2.22-8.45-7s.75-9,5.21-11.49C120.48,63,126.75,64.12,133.24,66.56Z"/><path class="cls-2" d="M193.75,145.63,193,154H165.8c5.5-2.27,4.08-7,4.13-11.16,0-4.32.06-8.65,0-13s1.18-9.11-4.63-11.35h26.35c.46,4.78.46,4.78-.64,7-2.53-4.72-7.1-5.94-15.39-3.88v12.18c8,1.82,10.48,1.1,12.21-3.7,1.47,2.53,1.61,7.81.12,12.12-1.82-8.27-7.71-4.24-12.85-5.16,1,5.14-2.45,10.66,2.39,14.05,2.12,1.5,6.14.12,9.27.42C191.45,152.05,190.6,147.46,193.75,145.63Z"/><path class="cls-2" d="M337.64,117.68c4.31,9.9,8.58,19.61,12.76,29.36,1.12,2.6,2.11,5.2,5.19,6.76H342c.14-2.55,3.07-.69,3.85-3-2.11-2.67-.05-8.54-6.83-8.57-11.44-.06-11.44-.22-13.81,8.61.7,1.74,3.2.73,4.16,2.93-4.2.92-8.12.32-12.31-.07,4.25-1.75,5.28-5.6,6.82-9.08q5.18-11.64,10.33-23.28C334.81,120.06,335,118.42,337.64,117.68Zm3.61,21.94c-1.86-4.8-3.2-9.07-6-13.33l-5.49,13.12A46.63,46.63,0,0,0,341.25,139.62Z"/><path class="cls-2" d="M251.4,145.12c2.87,6.88,9.89,9.39,16.11,5.69a6.79,6.79,0,0,0,3.43-7.61c-.56-3.15-2.88-4.24-5.74-4.59-2.47-.29-4.94-.65-7.42-.89-4-.38-7-2.12-7.86-6.34-.85-4.41.27-8.26,4-11.1,3.91-3,14.16-3.78,18.18-1.09,3.5,2.34.08,5.11.36,7.8-2.22-1.66-1-5.22-4.45-6a17.94,17.94,0,0,0-7.38-.51c-3.7.74-5.93,3-5.89,6.89,0,3.69,2.48,5.24,5.71,5.79,2.62.44,5.29.55,7.89,1.05,7.62,1.47,10.21,8.17,5.69,14.53-4.1,5.76-16.45,8.61-22.26,4.63C248.62,151.29,250.52,147.9,251.4,145.12Z"/><path class="cls-2" d="M364.72,1.24c-6.78,3.35-6.83,3.35-7.3,10.5-.61,9.31.05,18.63,0,27.93,0,4.75,3.87,4,7.5,6.31h-20c8.84-2.14,5.51-9.31,5.89-14.54.47-6.29.12-12.64,0-19-.16-7.69-.22-7.69-7.15-11.24Z"/><path class="cls-2" d="M138.42,44.65c7.12.18,6.58-4.44,6.57-8.78,0-7.65,0-15.31,0-23s0-7.68-6.78-11.7h19.3c-8.06,1.52-5.72,7.68-5.81,12.53-.12,7,0,14,0,21,0,7.66,0,7.66,7.08,11.24H139.16Z"/><path class="cls-2" d="M252.82,98.21c1.49,2.08,3.83.42,5,2.9H242.43c6.48-1.54,4.63-6.69,4.68-10.88.1-7.3,0-14.61,0-21.8-7.29-1.9-8.56-1.33-11.69,5.53a22.8,22.8,0,0,1-.62-8.76h29.83c1.24,2.44.18,4.11-1.77,5.64-1.69-4.91-5.85-2.83-10-3.25A227,227,0,0,0,252.82,98.21Z"/><path class="cls-2" d="M297.66,118.87c-5.26.7-5.26,4.16-5.18,8,.18,7.95,0,15.91,0,24.56,6.93-.9,15,3.89,18.22-7.74,1.42,4.18-.13,7,.1,10.18-8.71,1.45-17.27-.36-26,.74,4.34-10.73,1.67-21.32,2.21-31.71.16-3.05-2.92-2.53-5.79-4.36A59.5,59.5,0,0,1,297.66,118.87Z"/><path class="cls-2" d="M50.07,66.91c8.46-.08,13.83,4.69,13.8,12.27,0,8.12-6.41,14.28-14.79,14.28-7.85,0-13-5.22-13-13.26C36.06,71.82,41.13,67,50.07,66.91ZM40.16,79.09c.06,7.19,4.31,12.34,10.21,12.36,5.53,0,9.46-4.76,9.29-11.28-.19-7-4.37-11.49-10.52-11.36C43.54,68.92,40.12,72.84,40.16,79.09Z"/><path class="cls-2" d="M67.27,67.52H85.79c.65,1.56.22,3.24-.41,5.9-2.37-5.2-6.12-4.51-10.07-3.81-1.17,2.82-.35,5.64-.67,8.65,3.41.71,6.54,1.55,8.94-2.63.87,3.09.59,5.64.16,9.75-1.95-5.52-5.24-4.85-8.93-4.36.48,4-2.07,8.29,2.87,11.3-3.19,1-6.43.39-9.89.4C72.2,89.24,72,70.78,67.27,67.52Z"/><path class="cls-2" d="M36.48,99.33H87.14v.89H36.48Z"/><path class="cls-1" d="M326.3,325.43a1.73,1.73,0,0,1,1.21,2.35C326.06,327.42,326,326.58,326.3,325.43Z"/></g></g></svg>