<?xml version="1.0" encoding="utf-8"?>
<!-- Generator: Adobe Illustrator 26.0.3, SVG Export Plug-In . SVG Version: 6.00 Build 0)  -->
<svg version="1.1" id="Layer_1" xmlns="http://www.w3.org/2000/svg" xmlns:xlink="http://www.w3.org/1999/xlink" x="0px" y="0px"
	 viewBox="0 0 457.5 524.4" style="enable-background:new 0 0 457.5 524.4;" xml:space="preserve">
<style type="text/css">
	.st0{fill:#F9B601;}
	.st1{fill:#FEFFE9;}
</style>
<g id="Layer_2_00000051378759339686934770000000463904056870919043_">
	<g id="Layer_1-2">
		<path class="st0" d="M333.8,371.6c3.7,11.3,5.7,22.8,4.9,34.8c-0.8,12.5-3.8,24.7-8.7,36.2c-0.6,1.5-0.9,3.2-3.1,4.2
			c-2.9-13-8.3-24.5-18.5-33.1c-2.3,1.2-1.1,2.6-0.7,4c8.8,32.3-4.3,65.6-35.1,82.9c-17,9.5-35.1,16.5-53.9,23.9
			c7.8-53.9-2.8-101-48.2-135.5c-0.3,2.1,0.9,6.7,2.2,8.4c14.8,17.9,20.3,38.7,20,61.5c-0.1,11.6-4.4,26.3-9.7,33.8
			c0.1-13.4-0.8-26.1-4.5-38.4c-3.7-12.5-9.6-23.6-21.1-31.2c8.6,16.6,16.6,33.2,10.5,52.6c-2-5.4-2-11.2-4.3-16.5
			c-5-11.8-14.2-19.9-23.7-27.9c-18-15.1-37.9-27.7-56.1-42.5c-14.9-12.1-28-26-37.5-42.8c-7.5-13.1-12.3-27.4-10.4-43
			c0.1-1.2,0.3-2.3,0.6-3.5c0.3-0.6,0.7-1.2,1.1-1.8c3,10.8,9.5,20.3,18.3,27.1c9.3,7.1,19.3,13,29.7,18.6c-1.2-5.6-4.4-9.9-7.8-14
			c-10-12.2-23.2-21.4-33.7-33.3c-15.6-17.5-28-36.5-31.5-60.3c-1.6-10.3-1.8-20.7-0.4-31c3,9.9,6.5,18.5,12.3,25.9
			c9,11.3,20.1,19.9,32.8,26.8c7.6,4.1,15,8.6,22.1,13.6c6.8,4.8,12.9,10.6,18,17.1c1.8-8.5-0.8-15.1-5.9-21
			c-6.8-8-15.6-13.5-24.1-19.3c-16.1-11-31.6-22.7-43.8-38.3c-11.8-15-17-32.6-20.2-50.9c-4-22.4-4.4-45.2-1.4-67.7
			c0.1-0.9,0.3-1.8,0.8-4.1c2.4,10.1,4.3,18.8,6.6,27.3c6.4,23.9,16.9,45.6,34.9,62.9c10.4,10,23.2,16.4,36.4,22.2
			c11.9,5.2,24.8,7.5,36.7,12.6c9.1,3.9,17.7,8.2,24.4,16.1c-3.7-17.1-1.4-33.4,5-49.3c1.7,14.8,7.7,28.8,17.3,40.2
			c8.8,10.7,19.2,19.7,29.7,28.6c18.8,15.9,37.6,31.9,51.5,52.6c5.4,8,10.6,16.1,14.3,25.1c0.4,1.3,1.5,2.2,2.9,2.1
			c-1.1-15.1,0.8-30.3,5.6-44.7c-2.2-1.1-3.7,1-6.2,0.3c2.5-10.7,8-20.5,15.9-28.2c-4-4.3-9-8-10.9-14.9c11.1,4,21.6,3.1,32.2,1.7
			c7.8-1,15.6-1.3,23.3,0.9c2.4,0.7,5.5,1,5.4,4.7c-0.6,0.1-1.1,0.3-0.9,1.1l-2.5,0.3c1.1,0.7,1.9,0.9,2.5-0.2
			c0.7,0.2,1.1-0.1,1.4-0.7c9.5-0.7,17.2,3.4,23.5,9.9c4,4.1,3.2,9.9-1.1,14.7c-11.9-6.2-23.8-4.3-31.4,9.2
			c-3.9,7-3.1,14.8-0.9,22.4c1.5,5.3,3.5,10.4,5.9,15.4c0.8,1.6,1.8,3.2,1.1,5.1c-13.6-10.7-21.1-31.1-18.4-52.2
			c-2.2,4.6-3.1,9.7-2.8,14.9c1,16.2,8.8,29.2,18.8,41.4c10.3,12.6,22.7,23.3,32.5,36.3c9.6,12.6,14.8,26.2,10.6,43
			c5.2-10.9,3.9-24.3-3.1-37c-2.8-5.3-6.2-10.2-10.2-14.6c-10.8-11.4-11.2-25.5-9.4-39.8c2.1-16.6,12-28.9,23.5-40.1
			c10.1-9.8,21.5-17.8,33.5-25c27.3-16.6,42.9-41.5,51.1-71.7c0.5-1.7,0.6-3.5,2.2-5.4c1.5,17.5-0.6,34.3-4.2,50.9
			c-1.5,6.6-3.6,13.1-6.2,19.4c-4,9.9-11.2,17.2-19,24s-16.2,12.8-23,20.6c-5.4,6.1-9.5,12.8-8.2,23.1c7.4-15.5,21.7-21.7,32.7-31.5
			c5.9-5.3,10.8-11.2,12.6-19.2c2.4,0.3,1.6,2,1.6,3.1c0.6,14.2-5.2,26.2-13,37.5c-5,7.3-11.5,13.4-17.5,19.8
			c-6.5,7-11.4,14.9-13.5,24.4c9.3-6,16.8-13.6,21-25.4c1.6,7.8,0.7,15.9-2.7,23.1c-4.3,9.8-10.9,18.3-17.3,26.8
			c-10.4,13.8-18.8,29-30.2,42.1c-1.2,1.4-2.3,2.7-4,4.6c-3.2-9.2-5.9-17.9-10.3-25.9c-3.7-6.7-8.4-12.8-14.1-18
			c-1.3-1.1-2.3-3-4.5-2.5c-0.1-0.4-0.3-0.8-0.4-1.1c-0.2,0.1-0.5,0.4-0.5,0.4C333.4,371,333.6,371.3,333.8,371.6z M314,250
			c-2.7-3.6-12.1-3.5-19.4,0.1c5.8,0.7,6.2,0.8,8.5,2.3c5,3.3,5.6,3.1,6.7-2.9C311.2,249,312.4,251,314,250z"/>
		<path class="st1" d="M81.2,1.9c7-1.3,12.6-2,17.3,4.9c6.8,9.9,15,18.7,22.6,28c0.7,0.8,1.2,2,3.4,2V13.1c0-0.2,0-0.3,0-0.5
			c-0.3-7.1-0.3-7.1-6.3-10.6c2.8-1.5,12.2-1.6,15.6-0.2c-5.9,3.1-5.9,3.1-5.9,10.8c0,11.4,0,22.9,0,34.4c-3.7,0.3-6.2-1.1-8.4-3.8
			c-7.9-9.7-15.9-19.3-23.8-28.9c-1-1.2-2.1-2.4-3.1-3.5c-2,0.9-1.4,2.4-1.4,3.6c-0.1,6.7,0,13.3,0,20c0,4.7-0.8,9.8,7.1,10.3
			L97.1,46H81.8c7.6-1.5,5.9-7.4,6-12.2c0.2-7,0.1-14,0-21C87.8,8,89,2.5,81.2,1.9z"/>
		<path class="st1" d="M270.5,44c2.7,0.4,4.6-0.1,6.9,2h-19.8c7.7-1.8,5.8-7.7,5.9-12.7c0.1-7,0-14,0-21c0-7.6,0-7.6-5.9-10.3
			c0.1-0.3,0.2-0.9,0.3-0.9c9-0.1,17.9-0.4,26.9-0.1c4.4,0.1,8.1,2.5,9,7.3c1.1,5.1-0.8,9.2-5,12.2c-2.2,1.3-4.4,2.4-6.7,3.5
			c5.3,7.6,10.5,15.1,17,21.5c-4.4,2.3-8.3,1.6-11.1-2.2c-5.2-6.8-10.3-13.7-15.5-20.6c2.2-1.6,4.5-0.6,6.6-1.1
			c3.9-1,6.6-3.2,7.5-7.2c0.8-3.7,0.2-7.1-3.2-9.3c-3.6-2.3-7.6-2-11.5-0.8c-1,0.4-1.6,1.3-1.5,2.4C269.9,19,269.6,31.5,270.5,44z"
			/>
		<path class="st1" d="M250.6,35.2c-0.3,3.8-0.5,7.3-0.8,10.9h-35.7c6.1-3.7,6.3-3.7,6.4-10.8c0.2-8.5-0.1-17-0.1-25.5
			c0-3.5-0.2-6.8-5.1-6.6c-0.7,0-1.1-0.7-1.1-2h35.1c-0.2,3.4,0,6.7-1.4,9.8c-1.1,0.1-1.9-0.2-1.9-0.8c0.6-5.3-3-5.9-6.9-6.1
			s-7.6-0.6-11.7,0.8v15.9c9.2,2.2,12.5,1.1,16.8-6.3c0.6,5.9,0.6,11.8-0.1,17.7c-2.7-3.1-1.4-6.9-5.9-7.4
			c-10.9-1.1-11.9-0.4-10.9,10.8c0.6,7.5,0.6,7.5,8.4,7.8c1.6,0.1,3.3-0.2,5-0.1c4,0.1,6.8-1.2,7-5.8
			C247.8,36.4,248.2,35.4,250.6,35.2z"/>
		<path class="st1" d="M29.4,1.2h18.8c-0.2,0.8-0.3,1.4-0.4,1.4c-5.3,0.1-6.4,3.2-6.2,7.9c0.3,7-0.1,14,0.1,21
			c0.2,7.7,3.7,10.9,11.6,11.2C62.7,43,67.5,40,68,32.3c0.5-8.1,0-16.3,0.4-24.5C68.5,3,64.4,3.5,62,1.3h15.8c-8.3,2-5.7,8.8-6,14.1
			s0.1,10.7-0.1,16c-0.3,9.3-4.6,14-13.7,15.4c-2.5,0.5-5,0.6-7.5,0.3C38.1,45.6,35,42.2,35.1,29.7c0-5.8,0-11.7,0-17.5
			C35.1,7.7,36.1,2.5,29.4,1.2z"/>
		<path class="st1" d="M305.7,34.5c1.5,0.1,1.8,0.7,2,1.6c1,5.8,3.7,7.7,10.8,7.8c6.7,0.1,11.3-2.8,12.4-7.8c1-4.4-1-8.1-5.5-9.1
			c-3.6-0.8-7.2-0.9-10.9-1.5c-6.4-1-9.5-3.6-10.4-8.4c-1.1-6,1.3-11.8,6.4-14.6c7.8-4.2,15.7-2.9,23.8,0.2
			c-0.8,3.2,0.1,6.4-1.6,9.2c-1.2-0.1-2-0.5-1.9-1.5c0.6-6.1-3.9-6.6-8-7.1c-6.1-0.7-10.4,1.4-12.1,5.7s0.3,9.1,4.9,10.2
			c3.9,0.9,7.9,1.5,11.8,1.7c11,0.6,11.9,12.1,7.4,18.2c-4.9,6.6-11.8,8.1-19.5,7.8c-0.5-0.1-1-0.2-1.5-0.3
			C303.8,45,303.5,47.2,305.7,34.5z"/>
		<path class="st1" d="M59.5,155.2c5.3,2.7,10.5,2.9,16.5,2c-2.5,4.6-6,5.5-9.7,4.4c-8.1-2.4-16.3-5.2-23.4-9.9
			c-7.4-4.9-8.8-12.7-7.2-20.9c1.5-7.8,6.7-12.4,14.4-14.1c2.1-0.5,4.3-0.7,6.4-0.7c10,0.2,16.9,5.1,18.9,13.2
			c2.5,9.4-2,19.2-10.7,23.5C63.2,153.5,61.6,154.2,59.5,155.2z M40.9,133.6c0,11.5,6.5,19.4,15.9,19.2c8.3-0.1,13.9-6.9,13.9-16.9
			c0-10.6-6.2-17.5-15.7-17.5C46.3,118.3,40.9,124.1,40.9,133.6z"/>
		<path class="st1" d="M317.1,101.2h-16.1c0.9-2.6,3.3-0.9,4.7-3.2c0.8-3.9,0.3-8.9,0.2-14.5c-6.2,0-12.1,0-18.1,0
			c-0.8,0-2,0.4-2.2,0.9c-1,3-0.3,6.2-0.4,9.4c-0.1,3.5,0.5,6.1,4.6,6.5c0.1,0.3,0.1,0.6,0.2,0.9H275c6.4-1.2,4.8-6.1,4.9-10
			c0-5.5,0.1-11,0-16.5c-0.1-3.7,1.8-8.6-4.8-9.3h16.3c-9.6,3.3-4.7,9.9-6.6,15c7.2,0.7,14.5,0.8,21.7,0.2c-1.9-5.2,3.2-11.9-5-15
			H317c-1.2,2.1-3.6,0.8-4.9,2.9v30C313.6,100.3,315.8,98.6,317.1,101.2z"/>
		<path class="st1" d="M200.2,5c-2.1-2.2-5-0.4-5.7-3.8h14.3c-4.6,2.5-5.5,7.2-7.2,11.3c-4.3,10.5-8.5,21-12.8,31.4
			c-0.5,1.3-0.6,2.9-2.7,3c-2.4,0.1-2.6-1.7-3.2-3.2c-4.7-11.7-9.4-23.4-14.1-35.2c-1.2-3-2.2-5.9-6-7.2h17.5
			c-0.8,2.8-3.9,0.7-5.3,3.4c3,10.3,8.1,20.8,12.5,33C192.1,26,197,15.7,200.2,5z"/>
		<path class="st1" d="M398.2,154.7c-3.3,0.4-5.1-1-6.7-3.1c-5.8-7.1-11.6-14.1-17.4-21.2c-1.1-1.4-2.4-2.7-4.4-5
			c-0.7,8.3-0.6,16.7,0.2,25c0.2,2.2,3.2,1.2,4.5,3.5h-12.2c5.3-1.8,4.5-6.1,4.6-10c0-5.5-0.1-11,0.1-16.5c0.1-3.9-0.3-7.3-5-8.5
			c4.9-0.9,9-1.9,12.6,3.1c6.1,8.5,13,16.4,20,24.9c1.8-2.8,0.9-5.5,1-8c0.1-4-0.1-8,0-12c0.1-3.7-0.1-7.1-5.1-8
			c4-1.1,8.3-1.2,12.4-0.1c-3.8,0.6-4.6,3-4.6,6.6C398.3,135.1,398.2,144.8,398.2,154.7z"/>
		<path class="st1" d="M444.8,102c-3.4,0.5-5.5-0.8-7.3-3.1c-3.5-4.4-7.2-8.7-10.8-13.1c-3.5-4.4-7.2-8.5-11.1-12.5
			c0.4,9.4-3.2,19.2,2.3,28.2c-3.2,0.3-6.5,0-9.6-1c4.2-1.7,3.8-4.9,3.8-7.9c0-6.5-0.1-13,0.1-19.5c0.1-3.5-0.1-6.4-5.1-6.7
			c5.7-2.8,9.4-2,12.5,1.9c5.8,7.3,11.7,14.5,17.6,21.7c1.1,1.3,1.9,3.2,4.3,3.7c0.5-8.1,0.4-16.2-0.2-24.3c-0.2-3.1-3.8-1.4-5.3-4
			h12.8c-5.6,1.6-4.5,6.3-4.5,10.2C443.9,84.5,444.1,93.2,444.8,102z"/>
		<path class="st1" d="M411.5,154.4c3.7-3.2,3.6-6.2,3.7-9.1c0.1-6.1,0-12.3,0-18.4c0-3.4-0.2-6.7-4.6-7.2c0.4-2.2,1.8-1.6,2.8-1.6
			c5.5,0,11-0.1,16.4,0c10.4,0.2,17,5.2,18,13.6c1.2,10.3-4.4,19.2-14,21.8c-1.4,0.4-2.9,0.7-4.4,0.8
			C424,154.4,418.6,154.4,411.5,154.4z M420.5,135.9c0,4,0,8,0,12c0,1.7,0.1,3.1,2.4,3.8c7.6,2.1,16.5-2.2,18.4-9.8
			c3.2-13.3-2.1-22.2-17.1-21c-2.8,0.2-3.7,1.4-3.6,4.1C420.6,128.5,420.5,132.2,420.5,135.9L420.5,135.9z"/>
		<path class="st1" d="M209,126.3v23.4c0,3.5,3.8,1.8,5.9,4.1h-12.8c5.3-1.5,4.2-6,4.4-9.5c0.4-6,0-12,0.1-18
			c0.1-3.4-0.2-6.5-5.2-6.8c5.9-2.7,9.2-1.9,12.5,2.2c6.7,8.3,13.5,16.7,21,24.7c-0.6-9.3,3.1-18.8-1.9-27.9
			c1.4-0.8,3.7-0.3,5.8-0.3c-1,12.1-0.3,24-0.3,36.1c-3.2,1-5.1-0.5-6.9-2.7c-6-7.3-12-14.6-18.1-21.9
			C212.5,128.6,211.9,126.9,209,126.3z"/>
		<path class="st1" d="M381,100.6c-3.6,1-11.4,1.2-16.3,0.1c7.5-1.5,5.8-6.8,5.9-11.1c0.1-5.2,0.1-10.3,0-15.5
			c0-3.6,0.3-7.5-4.9-8.6c8.1-0.1,16-1.9,23.8,0c5.8,1.4,7.2,8.5,3.2,13.4c-1.8,2.2-4.3,3.1-7.5,4.5c4.2,6,8.8,11.8,13.7,17.3
			c-6,1.6-6.4,1.5-9.8-3l-11.5-15.2c1.7-1.5,3.6-0.7,5.3-1.2c3.1-1,5.4-2.7,6-6c0.5-2.6,0.1-5.1-2.2-6.8c-2.8-2-6-1.8-9.1-1
			c-1.6,0.4-1.7,1.9-1.7,3.2c0,8.3,0.2,16.7-0.1,25C375.6,99.7,379,99.1,381,100.6z"/>
		<path class="st1" d="M380.6,44.5c6.6,0.5,6.5-3.6,6.4-8.1c-0.1-10.6,0-21.2,0-31.7c-7.7-1.8-8.1-1.6-14.8,7.2
			c-1.1-3.8-0.5-7.3-0.8-11h38.2c-0.2,3.8,0.2,7.3-1.4,11c-3.3-1.8,0.1-7-4.4-7.5c-3.2-0.6-6.5-0.6-9.8,0c-0.7,13.1-0.7,26.2,0,39.3
			c2.1,1.6,4.3-0.3,6,1.4C397,47.1,383.2,46.9,380.6,44.5z"/>
		<path class="st1" d="M427.7,46c0.5-2.2,1.9-1.8,3-1.8c2.5-0.1,3.1-1.5,3.5-3.9c2.1-14.5-6.2-24.5-14.5-34.6
			c-1.2-1.5-3.7-0.6-4.6-2.6c5.1-4,9.4-3.7,12.7,1.6c3.8,5.8,7.1,11.9,11.1,18.5c3.9-6.6,7.8-12.7,11.2-19.1c1.6-3,3.5-4.2,7.4-2.9
			c-2.8,4-5.5,7.7-8,11.4c-5.2,7.6-10.5,15-8.9,25.1c0.6,3.7,0.6,6.5,5.2,6.4c0.5,0,1,0.7,2.4,1.9L427.7,46z"/>
		<path class="st1" d="M163.3,64.4c11.9,0,19.2,6.7,19.2,17.5c-0.1,11.6-8.8,20.3-20.6,20.4c-11.4,0.1-19-7.5-18.9-19.1
			S150.8,64.4,163.3,64.4z M148.7,81.9c0,10.7,6,17.8,14.8,17.7c8,0,13-6,13-15.7c0-10.5-5.3-16.7-14.2-16.8S148.7,72.2,148.7,81.9z
			"/>
		<path class="st1" d="M138.3,134.6c4.4-1.2,10.4,3.1,12.8-4.6v11.6c-2.6-7-8.1-4-12.9-4.3c-1.2,4.7,0.2,9.1-0.4,14.2
			c6.7-0.7,14.4,3.9,17.6-7.7c1.1,4.4,0.2,7.1,0.2,10.2h-27.1c4.4-2.1,3.8-5.9,3.8-9.5c0-5.8,0-11.6,0-17.5c0-3.5,0.8-7.4-5.9-7
			c0.4-0.5,0.8-0.9,1.2-1.4H155c0.4,2.7-0.1,5.4-1.3,7.8c-2.9-6-5-6.6-15.1-5.2c-1.3,1.9-0.5,4.1-0.6,6.2
			C137.8,129.6,137.3,131.8,138.3,134.6z"/>
		<path class="st1" d="M327.3,101.2c4.7-1.2,4.2-4.7,4.2-8c-0.1-6,0-12,0-18c0-3.9,1-8.3-4.9-9.6h28.2c-0.1,2.8-0.6,5.5-1.5,8.1
			c-2.5-5.4-7.6-7.5-13.6-5.8c-2.7,0.7-3.4,4.7-2.1,13c7.5,1.8,9.9,1.2,13-4.3c0.8,4.5,0.4,8.5,0,12.9c-2.6-7.2-7.9-5.4-13.1-4.8
			c-0.5,4.7-0.5,9.4,0,14.1c6.6-0.4,14.4,4.1,18.3-6c-0.2,2.8-0.5,5.6-0.7,8.4L327.3,101.2z"/>
		<path class="st1" d="M84.4,118.5h12.3c-3.5,0-4.1,2.3-4.1,5c0,6.8-0.2,13.6,0.2,20.4c0.3,4.8,3.4,7.1,8.9,7.4
			c6,0.3,10.4-1.8,11.2-6.1c1.4-7.4,0.9-14.9,0.4-22.4c-0.1-2.5-2.2-3.2-4.2-4.3h11.2c-3.7,0.4-3.7,3.1-3.8,5.7
			c-0.2,6.1-0.1,12.3-0.4,18.4c-0.4,7.4-3.6,10.8-10.8,12c-3.3,0.5-6.7,0.4-9.9-0.5c-5.2-1.2-8.1-4.4-8.2-9.8
			c-0.1-6.5-0.2-13-0.1-19.5C87.1,122.4,86.9,120.1,84.4,118.5z"/>
		<path class="st1" d="M188.3,65.8c5.1-1,10.4-1,15.5-0.1c-5.3,0.9-5.3,4.7-5.2,8.4c0.1,5.5,0,11,0.3,16.5c0.2,5.1,3.2,7.6,8.9,7.9
			c6.6,0.4,10.9-1.8,11.7-6.7c1.1-7.2,0.5-14.6,0.4-21.9c0-3.4-3.6-2.2-5.2-4.3c4.4-1,8.6-0.5,13.1,0c-5.3,1.2-4.9,5-4.9,8.7
			c0,5.3,0,10.7-0.3,16c-0.4,6.8-3.6,10.1-10.2,11.5c-3.6,0.7-7.3,0.6-10.9-0.4c-4.9-1.2-7.9-4.1-8.1-9.4
			c-0.2-6.2-0.3-12.3-0.2-18.5C193.2,70,193.5,66.6,188.3,65.8z"/>
		<path class="st1" d="M133.2,66.6c-0.3,3-0.6,5.2-0.9,7.4l-1.3,0.9c-0.4-7.4-5.1-8-10.3-7.6c-4,0.3-6.7,2.5-6.9,6.6
			s2.4,5.9,6.2,6.4c2.3,0.3,4.6,0.5,6.9,0.9c3.6,0.5,6.9,1.4,8.1,5.5c1.2,4.3,0,7.9-2.9,11c-3.6,3.8-8.3,4.8-13.2,4.8
			c-3.3-0.1-6.5-0.8-9.6-2.1c0.2-2.7,0.3-5.3,0.5-9.1c4.2,8,6.9,9.5,13.6,8.3c4.3-0.8,7.2-3.9,7-7.8c-0.2-4.5-3.2-5.8-7.1-6
			c-2-0.2-4-0.6-6-0.7c-4.4-0.4-7.7-2.2-8.4-7s0.8-9,5.2-11.5C120.5,63,126.8,64.1,133.2,66.6z"/>
		<path class="st1" d="M193.8,145.6L193,154h-27.2c5.5-2.3,4.1-7,4.1-11.2c0-4.3,0.1-8.6,0-13s1.2-9.1-4.6-11.3h26.4
			c0.5,4.8,0.5,4.8-0.6,7c-2.5-4.7-7.1-5.9-15.4-3.9v12.2c8,1.8,10.5,1.1,12.2-3.7c1.5,2.5,1.6,7.8,0.1,12.1
			c-1.8-8.3-7.7-4.2-12.9-5.2c1,5.1-2.4,10.7,2.4,14.1c2.1,1.5,6.1,0.1,9.3,0.4C191.4,152.1,190.6,147.5,193.8,145.6z"/>
		<path class="st1" d="M337.6,117.7c4.3,9.9,8.6,19.6,12.8,29.4c1.1,2.6,2.1,5.2,5.2,6.8H342c0.1-2.6,3.1-0.7,3.9-3
			c-2.1-2.7,0-8.5-6.8-8.6c-11.4-0.1-11.4-0.2-13.8,8.6c0.7,1.7,3.2,0.7,4.2,2.9c-4.2,0.9-8.1,0.3-12.3-0.1c4.2-1.8,5.3-5.6,6.8-9.1
			c3.5-7.8,6.9-15.5,10.3-23.3C334.8,120.1,335,118.4,337.6,117.7z M341.2,139.6c-1.9-4.8-3.2-9.1-6-13.3l-5.5,13.1
			C333.6,140,337.4,140,341.2,139.6z"/>
		<path class="st1" d="M251.4,145.1c2.9,6.9,9.9,9.4,16.1,5.7c2.8-1.5,4.2-4.6,3.4-7.6c-0.6-3.1-2.9-4.2-5.7-4.6
			c-2.5-0.3-4.9-0.6-7.4-0.9c-4-0.4-7-2.1-7.9-6.3c-0.9-4.4,0.3-8.3,4-11.1c3.9-3,14.2-3.8,18.2-1.1c3.5,2.3,0.1,5.1,0.4,7.8
			c-2.2-1.7-1-5.2-4.5-6c-2.4-0.7-4.9-0.9-7.4-0.5c-3.7,0.7-5.9,3-5.9,6.9c0,3.7,2.5,5.2,5.7,5.8c2.6,0.4,5.3,0.6,7.9,1.1
			c7.6,1.5,10.2,8.2,5.7,14.5c-4.1,5.8-16.5,8.6-22.3,4.6C248.6,151.3,250.5,147.9,251.4,145.1z"/>
		<path class="st1" d="M364.7,1.2c-6.8,3.4-6.8,3.4-7.3,10.5c-0.6,9.3,0,18.6,0,27.9c0,4.8,3.9,4,7.5,6.3h-20
			c8.8-2.1,5.5-9.3,5.9-14.5c0.5-6.3,0.1-12.6,0-19c-0.2-7.7-0.2-7.7-7.1-11.2L364.7,1.2z"/>
		<path class="st1" d="M138.4,44.7c7.1,0.2,6.6-4.4,6.6-8.8c0-7.6,0-15.3,0-23s0-7.7-6.8-11.7h19.3c-8.1,1.5-5.7,7.7-5.8,12.5
			c-0.1,7,0,14,0,21c0,7.7,0,7.7,7.1,11.2h-19.6L138.4,44.7z"/>
		<path class="st1" d="M252.8,98.2c1.5,2.1,3.8,0.4,5,2.9h-15.4c6.5-1.5,4.6-6.7,4.7-10.9c0.1-7.3,0-14.6,0-21.8
			c-7.3-1.9-8.6-1.3-11.7,5.5c-0.8-2.9-1-5.8-0.6-8.8h29.8c1.2,2.4,0.2,4.1-1.8,5.6c-1.7-4.9-5.9-2.8-10-3.2
			C252.2,77.8,252.1,88,252.8,98.2z"/>
		<path class="st1" d="M297.7,118.9c-5.3,0.7-5.3,4.2-5.2,8c0.2,8,0,15.9,0,24.6c6.9-0.9,15,3.9,18.2-7.7c1.4,4.2-0.1,7,0.1,10.2
			c-8.7,1.4-17.3-0.4-26,0.7c4.3-10.7,1.7-21.3,2.2-31.7c0.2-3.1-2.9-2.5-5.8-4.4C286.7,117.9,292.2,118,297.7,118.9z"/>
		<path class="st1" d="M50.1,66.9c8.5-0.1,13.8,4.7,13.8,12.3c0,8.1-6.4,14.3-14.8,14.3c-7.8,0-13-5.2-13-13.3
			C36.1,71.8,41.1,67,50.1,66.9z M40.2,79.1c0.1,7.2,4.3,12.3,10.2,12.4c5.5,0,9.5-4.8,9.3-11.3c-0.2-7-4.4-11.5-10.5-11.4
			C43.5,68.9,40.1,72.8,40.2,79.1z"/>
		<path class="st1" d="M67.3,67.5h18.5c0.7,1.6,0.2,3.2-0.4,5.9c-2.4-5.2-6.1-4.5-10.1-3.8c-1.2,2.8-0.3,5.6-0.7,8.7
			c3.4,0.7,6.5,1.6,8.9-2.6c0.9,3.1,0.6,5.6,0.2,9.8c-1.9-5.5-5.2-4.8-8.9-4.4c0.5,4-2.1,8.3,2.9,11.3c-3.2,1-6.4,0.4-9.9,0.4
			C72.2,89.2,72,70.8,67.3,67.5z"/>
		<path class="st1" d="M36.5,99.3h50.7v0.9H36.5V99.3z"/>
		<path class="st1" d="M326.3,325.4c0.9,0.2,1.5,1.1,1.3,2.1c0,0.1-0.1,0.2-0.1,0.3C326.1,327.4,326,326.6,326.3,325.4z"/>
	</g>
</g>
</svg>
